<svg width="480" height="480" viewBox="0 0 480 480" fill="none" xmlns="http://www.w3.org/2000/svg">
<g opacity="0.6" clip-path="url(#clip0)">
<circle cx="342" cy="168" r="86" fill="#4F4F4F" fill-opacity="0.17"/>
<circle cx="17" cy="132" r="50" fill="#4F4F4F" fill-opacity="0.25"/>
<circle cx="256" cy="358" r="92" fill="#4F4F4F" fill-opacity="0.38"/>
<path d="M138.639 92.575V94.425H133.889V110H131.614V94.425H126.839V92.575H138.639ZM148.239 96.05C149.272 96.05 150.206 96.275 151.039 96.725C151.872 97.1583 152.522 97.8167 152.989 98.7C153.472 99.5833 153.714 100.658 153.714 101.925V110H151.464V102.25C151.464 100.883 151.122 99.8417 150.439 99.125C149.756 98.3917 148.822 98.025 147.639 98.025C146.439 98.025 145.481 98.4 144.764 99.15C144.064 99.9 143.714 100.992 143.714 102.425V110H141.439V91.5H143.714V98.25C144.164 97.55 144.781 97.0083 145.564 96.625C146.364 96.2417 147.256 96.05 148.239 96.05ZM158.605 94.075C158.172 94.075 157.805 93.925 157.505 93.625C157.205 93.325 157.055 92.9583 157.055 92.525C157.055 92.0917 157.205 91.725 157.505 91.425C157.805 91.125 158.172 90.975 158.605 90.975C159.022 90.975 159.372 91.125 159.655 91.425C159.955 91.725 160.105 92.0917 160.105 92.525C160.105 92.9583 159.955 93.325 159.655 93.625C159.372 93.925 159.022 94.075 158.605 94.075ZM159.705 96.3V110H157.43V96.3H159.705ZM168.433 110.225C167.383 110.225 166.441 110.05 165.608 109.7C164.774 109.333 164.116 108.833 163.633 108.2C163.149 107.55 162.883 106.808 162.833 105.975H165.183C165.249 106.658 165.566 107.217 166.133 107.65C166.716 108.083 167.474 108.3 168.408 108.3C169.274 108.3 169.958 108.108 170.458 107.725C170.958 107.342 171.208 106.858 171.208 106.275C171.208 105.675 170.941 105.233 170.408 104.95C169.874 104.65 169.049 104.358 167.933 104.075C166.916 103.808 166.083 103.542 165.433 103.275C164.799 102.992 164.249 102.583 163.783 102.05C163.333 101.5 163.108 100.783 163.108 99.9C163.108 99.2 163.316 98.5583 163.733 97.975C164.149 97.3917 164.741 96.9333 165.508 96.6C166.274 96.25 167.149 96.075 168.133 96.075C169.649 96.075 170.874 96.4583 171.808 97.225C172.741 97.9917 173.241 99.0417 173.308 100.375H171.033C170.983 99.6583 170.691 99.0833 170.158 98.65C169.641 98.2167 168.941 98 168.058 98C167.241 98 166.591 98.175 166.108 98.525C165.624 98.875 165.383 99.3333 165.383 99.9C165.383 100.35 165.524 100.725 165.808 101.025C166.108 101.308 166.474 101.542 166.908 101.725C167.358 101.892 167.974 102.083 168.758 102.3C169.741 102.567 170.541 102.833 171.158 103.1C171.774 103.35 172.299 103.733 172.733 104.25C173.183 104.767 173.416 105.442 173.433 106.275C173.433 107.025 173.224 107.7 172.808 108.3C172.391 108.9 171.799 109.375 171.033 109.725C170.283 110.058 169.416 110.225 168.433 110.225ZM184.484 94.075C184.051 94.075 183.684 93.925 183.384 93.625C183.084 93.325 182.934 92.9583 182.934 92.525C182.934 92.0917 183.084 91.725 183.384 91.425C183.684 91.125 184.051 90.975 184.484 90.975C184.901 90.975 185.251 91.125 185.534 91.425C185.834 91.725 185.984 92.0917 185.984 92.525C185.984 92.9583 185.834 93.325 185.534 93.625C185.251 93.925 184.901 94.075 184.484 94.075ZM185.584 96.3V110H183.309V96.3H185.584ZM194.312 110.225C193.262 110.225 192.32 110.05 191.487 109.7C190.653 109.333 189.995 108.833 189.512 108.2C189.028 107.55 188.762 106.808 188.712 105.975H191.062C191.128 106.658 191.445 107.217 192.012 107.65C192.595 108.083 193.353 108.3 194.287 108.3C195.153 108.3 195.837 108.108 196.337 107.725C196.837 107.342 197.087 106.858 197.087 106.275C197.087 105.675 196.82 105.233 196.287 104.95C195.753 104.65 194.928 104.358 193.812 104.075C192.795 103.808 191.962 103.542 191.312 103.275C190.678 102.992 190.128 102.583 189.662 102.05C189.212 101.5 188.987 100.783 188.987 99.9C188.987 99.2 189.195 98.5583 189.612 97.975C190.028 97.3917 190.62 96.9333 191.387 96.6C192.153 96.25 193.028 96.075 194.012 96.075C195.528 96.075 196.753 96.4583 197.687 97.225C198.62 97.9917 199.12 99.0417 199.187 100.375H196.912C196.862 99.6583 196.57 99.0833 196.037 98.65C195.52 98.2167 194.82 98 193.937 98C193.12 98 192.47 98.175 191.987 98.525C191.503 98.875 191.262 99.3333 191.262 99.9C191.262 100.35 191.403 100.725 191.687 101.025C191.987 101.308 192.353 101.542 192.787 101.725C193.237 101.892 193.853 102.083 194.637 102.3C195.62 102.567 196.42 102.833 197.037 103.1C197.653 103.35 198.178 103.733 198.612 104.25C199.062 104.767 199.295 105.442 199.312 106.275C199.312 107.025 199.103 107.7 198.687 108.3C198.27 108.9 197.678 109.375 196.912 109.725C196.162 110.058 195.295 110.225 194.312 110.225ZM214.038 110.225C212.988 110.225 212.047 110.05 211.213 109.7C210.38 109.333 209.722 108.833 209.238 108.2C208.755 107.55 208.488 106.808 208.438 105.975H210.788C210.855 106.658 211.172 107.217 211.738 107.65C212.322 108.083 213.08 108.3 214.013 108.3C214.88 108.3 215.563 108.108 216.063 107.725C216.563 107.342 216.813 106.858 216.813 106.275C216.813 105.675 216.547 105.233 216.013 104.95C215.48 104.65 214.655 104.358 213.538 104.075C212.522 103.808 211.688 103.542 211.038 103.275C210.405 102.992 209.855 102.583 209.388 102.05C208.938 101.5 208.713 100.783 208.713 99.9C208.713 99.2 208.922 98.5583 209.338 97.975C209.755 97.3917 210.347 96.9333 211.113 96.6C211.88 96.25 212.755 96.075 213.738 96.075C215.255 96.075 216.48 96.4583 217.413 97.225C218.347 97.9917 218.847 99.0417 218.913 100.375H216.638C216.588 99.6583 216.297 99.0833 215.763 98.65C215.247 98.2167 214.547 98 213.663 98C212.847 98 212.197 98.175 211.713 98.525C211.23 98.875 210.988 99.3333 210.988 99.9C210.988 100.35 211.13 100.725 211.413 101.025C211.713 101.308 212.08 101.542 212.513 101.725C212.963 101.892 213.58 102.083 214.363 102.3C215.347 102.567 216.147 102.833 216.763 103.1C217.38 103.35 217.905 103.733 218.338 104.25C218.788 104.767 219.022 105.442 219.038 106.275C219.038 107.025 218.83 107.7 218.413 108.3C217.997 108.9 217.405 109.375 216.638 109.725C215.888 110.058 215.022 110.225 214.038 110.225ZM234.75 102.625C234.75 103.058 234.725 103.517 234.675 104H223.725C223.808 105.35 224.266 106.408 225.1 107.175C225.95 107.925 226.975 108.3 228.175 108.3C229.158 108.3 229.975 108.075 230.625 107.625C231.291 107.158 231.758 106.542 232.025 105.775H234.475C234.108 107.092 233.375 108.167 232.275 109C231.175 109.817 229.808 110.225 228.175 110.225C226.875 110.225 225.708 109.933 224.675 109.35C223.658 108.767 222.858 107.942 222.275 106.875C221.691 105.792 221.4 104.542 221.4 103.125C221.4 101.708 221.683 100.467 222.25 99.4C222.816 98.3333 223.608 97.5167 224.625 96.95C225.658 96.3667 226.841 96.075 228.175 96.075C229.475 96.075 230.625 96.3583 231.625 96.925C232.625 97.4917 233.391 98.275 233.925 99.275C234.475 100.258 234.75 101.375 234.75 102.625ZM232.4 102.15C232.4 101.283 232.208 100.542 231.825 99.925C231.441 99.2917 230.916 98.8167 230.25 98.5C229.6 98.1667 228.875 98 228.075 98C226.925 98 225.941 98.3667 225.125 99.1C224.325 99.8333 223.866 100.85 223.75 102.15H232.4ZM236.903 103.125C236.903 101.708 237.186 100.475 237.753 99.425C238.319 98.3583 239.103 97.5333 240.103 96.95C241.119 96.3667 242.278 96.075 243.578 96.075C245.261 96.075 246.644 96.4833 247.728 97.3C248.828 98.1167 249.553 99.25 249.903 100.7H247.453C247.219 99.8667 246.761 99.2083 246.078 98.725C245.411 98.2417 244.578 98 243.578 98C242.278 98 241.228 98.45 240.428 99.35C239.628 100.233 239.228 101.492 239.228 103.125C239.228 104.775 239.628 106.05 240.428 106.95C241.228 107.85 242.278 108.3 243.578 108.3C244.578 108.3 245.411 108.067 246.078 107.6C246.744 107.133 247.203 106.467 247.453 105.6H249.903C249.536 107 248.803 108.125 247.703 108.975C246.603 109.808 245.228 110.225 243.578 110.225C242.278 110.225 241.119 109.933 240.103 109.35C239.103 108.767 238.319 107.942 237.753 106.875C237.186 105.808 236.903 104.558 236.903 103.125ZM255.713 98.175V106.25C255.713 106.917 255.855 107.392 256.138 107.675C256.422 107.942 256.913 108.075 257.613 108.075H259.288V110H257.238C255.972 110 255.022 109.708 254.388 109.125C253.755 108.542 253.438 107.583 253.438 106.25V98.175H251.663V96.3H253.438V92.85H255.713V96.3H259.288V98.175H255.713ZM263.22 94.075C262.786 94.075 262.42 93.925 262.12 93.625C261.82 93.325 261.67 92.9583 261.67 92.525C261.67 92.0917 261.82 91.725 262.12 91.425C262.42 91.125 262.786 90.975 263.22 90.975C263.636 90.975 263.986 91.125 264.27 91.425C264.57 91.725 264.72 92.0917 264.72 92.525C264.72 92.9583 264.57 93.325 264.27 93.625C263.986 93.925 263.636 94.075 263.22 94.075ZM264.32 96.3V110H262.045V96.3H264.32ZM274.172 110.225C272.889 110.225 271.722 109.933 270.672 109.35C269.639 108.767 268.822 107.942 268.222 106.875C267.639 105.792 267.347 104.542 267.347 103.125C267.347 101.725 267.647 100.492 268.247 99.425C268.864 98.3417 269.697 97.5167 270.747 96.95C271.797 96.3667 272.972 96.075 274.272 96.075C275.572 96.075 276.747 96.3667 277.797 96.95C278.847 97.5167 279.672 98.3333 280.272 99.4C280.889 100.467 281.197 101.708 281.197 103.125C281.197 104.542 280.88 105.792 280.247 106.875C279.63 107.942 278.789 108.767 277.722 109.35C276.655 109.933 275.472 110.225 274.172 110.225ZM274.172 108.225C274.989 108.225 275.755 108.033 276.472 107.65C277.189 107.267 277.764 106.692 278.197 105.925C278.647 105.158 278.872 104.225 278.872 103.125C278.872 102.025 278.655 101.092 278.222 100.325C277.789 99.5583 277.222 98.9917 276.522 98.625C275.822 98.2417 275.064 98.05 274.247 98.05C273.414 98.05 272.647 98.2417 271.947 98.625C271.264 98.9917 270.714 99.5583 270.297 100.325C269.88 101.092 269.672 102.025 269.672 103.125C269.672 104.242 269.872 105.183 270.272 105.95C270.689 106.717 271.239 107.292 271.922 107.675C272.605 108.042 273.355 108.225 274.172 108.225ZM290.863 96.05C292.53 96.05 293.88 96.5583 294.913 97.575C295.947 98.575 296.463 100.025 296.463 101.925V110H294.213V102.25C294.213 100.883 293.872 99.8417 293.188 99.125C292.505 98.3917 291.572 98.025 290.388 98.025C289.188 98.025 288.23 98.4 287.513 99.15C286.813 99.9 286.463 100.992 286.463 102.425V110H284.188V96.3H286.463V98.25C286.913 97.55 287.522 97.0083 288.288 96.625C289.072 96.2417 289.93 96.05 290.863 96.05ZM308.019 94.075C307.586 94.075 307.219 93.925 306.919 93.625C306.619 93.325 306.469 92.9583 306.469 92.525C306.469 92.0917 306.619 91.725 306.919 91.425C307.219 91.125 307.586 90.975 308.019 90.975C308.436 90.975 308.786 91.125 309.069 91.425C309.369 91.725 309.519 92.0917 309.519 92.525C309.519 92.9583 309.369 93.325 309.069 93.625C308.786 93.925 308.436 94.075 308.019 94.075ZM309.119 96.3V110H306.844V96.3H309.119ZM317.847 110.225C316.797 110.225 315.855 110.05 315.022 109.7C314.188 109.333 313.53 108.833 313.047 108.2C312.563 107.55 312.297 106.808 312.247 105.975H314.597C314.663 106.658 314.98 107.217 315.547 107.65C316.13 108.083 316.888 108.3 317.822 108.3C318.688 108.3 319.372 108.108 319.872 107.725C320.372 107.342 320.622 106.858 320.622 106.275C320.622 105.675 320.355 105.233 319.822 104.95C319.288 104.65 318.463 104.358 317.347 104.075C316.33 103.808 315.497 103.542 314.847 103.275C314.213 102.992 313.663 102.583 313.197 102.05C312.747 101.5 312.522 100.783 312.522 99.9C312.522 99.2 312.73 98.5583 313.147 97.975C313.563 97.3917 314.155 96.9333 314.922 96.6C315.688 96.25 316.563 96.075 317.547 96.075C319.063 96.075 320.288 96.4583 321.222 97.225C322.155 97.9917 322.655 99.0417 322.722 100.375H320.447C320.397 99.6583 320.105 99.0833 319.572 98.65C319.055 98.2167 318.355 98 317.472 98C316.655 98 316.005 98.175 315.522 98.525C315.038 98.875 314.797 99.3333 314.797 99.9C314.797 100.35 314.938 100.725 315.222 101.025C315.522 101.308 315.888 101.542 316.322 101.725C316.772 101.892 317.388 102.083 318.172 102.3C319.155 102.567 319.955 102.833 320.572 103.1C321.188 103.35 321.713 103.733 322.147 104.25C322.597 104.767 322.83 105.442 322.847 106.275C322.847 107.025 322.638 107.7 322.222 108.3C321.805 108.9 321.213 109.375 320.447 109.725C319.697 110.058 318.83 110.225 317.847 110.225ZM337.573 110.225C336.523 110.225 335.582 110.05 334.748 109.7C333.915 109.333 333.257 108.833 332.773 108.2C332.29 107.55 332.023 106.808 331.973 105.975H334.323C334.39 106.658 334.707 107.217 335.273 107.65C335.857 108.083 336.615 108.3 337.548 108.3C338.415 108.3 339.098 108.108 339.598 107.725C340.098 107.342 340.348 106.858 340.348 106.275C340.348 105.675 340.082 105.233 339.548 104.95C339.015 104.65 338.19 104.358 337.073 104.075C336.057 103.808 335.223 103.542 334.573 103.275C333.94 102.992 333.39 102.583 332.923 102.05C332.473 101.5 332.248 100.783 332.248 99.9C332.248 99.2 332.457 98.5583 332.873 97.975C333.29 97.3917 333.882 96.9333 334.648 96.6C335.415 96.25 336.29 96.075 337.273 96.075C338.79 96.075 340.015 96.4583 340.948 97.225C341.882 97.9917 342.382 99.0417 342.448 100.375H340.173C340.123 99.6583 339.832 99.0833 339.298 98.65C338.782 98.2167 338.082 98 337.198 98C336.382 98 335.732 98.175 335.248 98.525C334.765 98.875 334.523 99.3333 334.523 99.9C334.523 100.35 334.665 100.725 334.948 101.025C335.248 101.308 335.615 101.542 336.048 101.725C336.498 101.892 337.115 102.083 337.898 102.3C338.882 102.567 339.682 102.833 340.298 103.1C340.915 103.35 341.44 103.733 341.873 104.25C342.323 104.767 342.557 105.442 342.573 106.275C342.573 107.025 342.365 107.7 341.948 108.3C341.532 108.9 340.94 109.375 340.173 109.725C339.423 110.058 338.557 110.225 337.573 110.225ZM351.76 110.225C350.477 110.225 349.31 109.933 348.26 109.35C347.227 108.767 346.41 107.942 345.81 106.875C345.227 105.792 344.935 104.542 344.935 103.125C344.935 101.725 345.235 100.492 345.835 99.425C346.452 98.3417 347.285 97.5167 348.335 96.95C349.385 96.3667 350.56 96.075 351.86 96.075C353.16 96.075 354.335 96.3667 355.385 96.95C356.435 97.5167 357.26 98.3333 357.86 99.4C358.477 100.467 358.785 101.708 358.785 103.125C358.785 104.542 358.468 105.792 357.835 106.875C357.218 107.942 356.377 108.767 355.31 109.35C354.243 109.933 353.06 110.225 351.76 110.225ZM351.76 108.225C352.577 108.225 353.343 108.033 354.06 107.65C354.777 107.267 355.352 106.692 355.785 105.925C356.235 105.158 356.46 104.225 356.46 103.125C356.46 102.025 356.243 101.092 355.81 100.325C355.377 99.5583 354.81 98.9917 354.11 98.625C353.41 98.2417 352.652 98.05 351.835 98.05C351.002 98.05 350.235 98.2417 349.535 98.625C348.852 98.9917 348.302 99.5583 347.885 100.325C347.468 101.092 347.26 102.025 347.26 103.125C347.26 104.242 347.46 105.183 347.86 105.95C348.277 106.717 348.827 107.292 349.51 107.675C350.193 108.042 350.943 108.225 351.76 108.225ZM375.116 96.05C376.783 96.05 378.133 96.5583 379.166 97.575C380.199 98.575 380.716 100.025 380.716 101.925V110H378.466V102.25C378.466 100.883 378.124 99.8417 377.441 99.125C376.758 98.3917 375.824 98.025 374.641 98.025C373.441 98.025 372.483 98.4 371.766 99.15C371.066 99.9 370.716 100.992 370.716 102.425V110H368.441V96.3H370.716V98.25C371.166 97.55 371.774 97.0083 372.541 96.625C373.324 96.2417 374.183 96.05 375.116 96.05ZM396.932 102.625C396.932 103.058 396.907 103.517 396.857 104H385.907C385.991 105.35 386.449 106.408 387.282 107.175C388.132 107.925 389.157 108.3 390.357 108.3C391.341 108.3 392.157 108.075 392.807 107.625C393.474 107.158 393.941 106.542 394.207 105.775H396.657C396.291 107.092 395.557 108.167 394.457 109C393.357 109.817 391.991 110.225 390.357 110.225C389.057 110.225 387.891 109.933 386.857 109.35C385.841 108.767 385.041 107.942 384.457 106.875C383.874 105.792 383.582 104.542 383.582 103.125C383.582 101.708 383.866 100.467 384.432 99.4C384.999 98.3333 385.791 97.5167 386.807 96.95C387.841 96.3667 389.024 96.075 390.357 96.075C391.657 96.075 392.807 96.3583 393.807 96.925C394.807 97.4917 395.574 98.275 396.107 99.275C396.657 100.258 396.932 101.375 396.932 102.625ZM394.582 102.15C394.582 101.283 394.391 100.542 394.007 99.925C393.624 99.2917 393.099 98.8167 392.432 98.5C391.782 98.1667 391.057 98 390.257 98C389.107 98 388.124 98.3667 387.307 99.1C386.507 99.8333 386.049 100.85 385.932 102.15H394.582ZM399.085 103.1C399.085 101.7 399.369 100.475 399.935 99.425C400.502 98.3583 401.277 97.5333 402.26 96.95C403.26 96.3667 404.369 96.075 405.585 96.075C406.785 96.075 407.827 96.3333 408.71 96.85C409.594 97.3667 410.252 98.0167 410.685 98.8V96.3H412.985V110H410.685V107.45C410.235 108.25 409.56 108.917 408.66 109.45C407.777 109.967 406.744 110.225 405.56 110.225C404.344 110.225 403.244 109.925 402.26 109.325C401.277 108.725 400.502 107.883 399.935 106.8C399.369 105.717 399.085 104.483 399.085 103.1ZM410.685 103.125C410.685 102.092 410.477 101.192 410.06 100.425C409.644 99.6583 409.077 99.075 408.36 98.675C407.66 98.2583 406.885 98.05 406.035 98.05C405.185 98.05 404.41 98.25 403.71 98.65C403.01 99.05 402.452 99.6333 402.035 100.4C401.619 101.167 401.41 102.067 401.41 103.1C401.41 104.15 401.619 105.067 402.035 105.85C402.452 106.617 403.01 107.208 403.71 107.625C404.41 108.025 405.185 108.225 406.035 108.225C406.885 108.225 407.66 108.025 408.36 107.625C409.077 107.208 409.644 106.617 410.06 105.85C410.477 105.067 410.685 104.158 410.685 103.125ZM419.605 98.175V106.25C419.605 106.917 419.746 107.392 420.03 107.675C420.313 107.942 420.805 108.075 421.505 108.075H423.18V110H421.13C419.863 110 418.913 109.708 418.28 109.125C417.646 108.542 417.33 107.583 417.33 106.25V98.175H415.555V96.3H417.33V92.85H419.605V96.3H423.18V98.175H419.605ZM209.266 141.1C209.266 139.7 209.549 138.475 210.116 137.425C210.683 136.358 211.458 135.533 212.441 134.95C213.441 134.367 214.549 134.075 215.766 134.075C216.966 134.075 218.008 134.333 218.891 134.85C219.774 135.367 220.433 136.017 220.866 136.8V134.3H223.166V148H220.866V145.45C220.416 146.25 219.741 146.917 218.841 147.45C217.958 147.967 216.924 148.225 215.741 148.225C214.524 148.225 213.424 147.925 212.441 147.325C211.458 146.725 210.683 145.883 210.116 144.8C209.549 143.717 209.266 142.483 209.266 141.1ZM220.866 141.125C220.866 140.092 220.658 139.192 220.241 138.425C219.824 137.658 219.258 137.075 218.541 136.675C217.841 136.258 217.066 136.05 216.216 136.05C215.366 136.05 214.591 136.25 213.891 136.65C213.191 137.05 212.633 137.633 212.216 138.4C211.799 139.167 211.591 140.067 211.591 141.1C211.591 142.15 211.799 143.067 212.216 143.85C212.633 144.617 213.191 145.208 213.891 145.625C214.591 146.025 215.366 146.225 216.216 146.225C217.066 146.225 217.841 146.025 218.541 145.625C219.258 145.208 219.824 144.617 220.241 143.85C220.658 143.067 220.866 142.158 220.866 141.125ZM233.685 134.05C235.352 134.05 236.702 134.558 237.735 135.575C238.769 136.575 239.285 138.025 239.285 139.925V148H237.035V140.25C237.035 138.883 236.694 137.842 236.01 137.125C235.327 136.392 234.394 136.025 233.21 136.025C232.01 136.025 231.052 136.4 230.335 137.15C229.635 137.9 229.285 138.992 229.285 140.425V148H227.01V134.3H229.285V136.25C229.735 135.55 230.344 135.008 231.11 134.625C231.894 134.242 232.752 134.05 233.685 134.05ZM242.152 141.1C242.152 139.7 242.435 138.475 243.002 137.425C243.568 136.358 244.343 135.533 245.327 134.95C246.327 134.367 247.443 134.075 248.677 134.075C249.743 134.075 250.735 134.325 251.652 134.825C252.568 135.308 253.268 135.95 253.752 136.75V129.5H256.052V148H253.752V145.425C253.302 146.242 252.635 146.917 251.752 147.45C250.868 147.967 249.835 148.225 248.652 148.225C247.435 148.225 246.327 147.925 245.327 147.325C244.343 146.725 243.568 145.883 243.002 144.8C242.435 143.717 242.152 142.483 242.152 141.1ZM253.752 141.125C253.752 140.092 253.543 139.192 253.127 138.425C252.71 137.658 252.143 137.075 251.427 136.675C250.727 136.258 249.952 136.05 249.102 136.05C248.252 136.05 247.477 136.25 246.777 136.65C246.077 137.05 245.518 137.633 245.102 138.4C244.685 139.167 244.477 140.067 244.477 141.1C244.477 142.15 244.685 143.067 245.102 143.85C245.518 144.617 246.077 145.208 246.777 145.625C247.477 146.025 248.252 146.225 249.102 146.225C249.952 146.225 250.727 146.025 251.427 145.625C252.143 145.208 252.71 144.617 253.127 143.85C253.543 143.067 253.752 142.158 253.752 141.125ZM265.711 141.125C265.711 139.708 265.995 138.475 266.561 137.425C267.128 136.358 267.911 135.533 268.911 134.95C269.928 134.367 271.086 134.075 272.386 134.075C274.07 134.075 275.453 134.483 276.536 135.3C277.636 136.117 278.361 137.25 278.711 138.7H276.261C276.028 137.867 275.57 137.208 274.886 136.725C274.22 136.242 273.386 136 272.386 136C271.086 136 270.036 136.45 269.236 137.35C268.436 138.233 268.036 139.492 268.036 141.125C268.036 142.775 268.436 144.05 269.236 144.95C270.036 145.85 271.086 146.3 272.386 146.3C273.386 146.3 274.22 146.067 274.886 145.6C275.553 145.133 276.011 144.467 276.261 143.6H278.711C278.345 145 277.611 146.125 276.511 146.975C275.411 147.808 274.036 148.225 272.386 148.225C271.086 148.225 269.928 147.933 268.911 147.35C267.911 146.767 267.128 145.942 266.561 144.875C265.995 143.808 265.711 142.558 265.711 141.125ZM284.022 129.5V148H281.747V129.5H284.022ZM300.399 140.625C300.399 141.058 300.374 141.517 300.324 142H289.374C289.457 143.35 289.916 144.408 290.749 145.175C291.599 145.925 292.624 146.3 293.824 146.3C294.807 146.3 295.624 146.075 296.274 145.625C296.941 145.158 297.407 144.542 297.674 143.775H300.124C299.757 145.092 299.024 146.167 297.924 147C296.824 147.817 295.457 148.225 293.824 148.225C292.524 148.225 291.357 147.933 290.324 147.35C289.307 146.767 288.507 145.942 287.924 144.875C287.341 143.792 287.049 142.542 287.049 141.125C287.049 139.708 287.332 138.467 287.899 137.4C288.466 136.333 289.257 135.517 290.274 134.95C291.307 134.367 292.491 134.075 293.824 134.075C295.124 134.075 296.274 134.358 297.274 134.925C298.274 135.492 299.041 136.275 299.574 137.275C300.124 138.258 300.399 139.375 300.399 140.625ZM298.049 140.15C298.049 139.283 297.857 138.542 297.474 137.925C297.091 137.292 296.566 136.817 295.899 136.5C295.249 136.167 294.524 136 293.724 136C292.574 136 291.591 136.367 290.774 137.1C289.974 137.833 289.516 138.85 289.399 140.15H298.049ZM302.552 141.1C302.552 139.7 302.835 138.475 303.402 137.425C303.969 136.358 304.744 135.533 305.727 134.95C306.727 134.367 307.835 134.075 309.052 134.075C310.252 134.075 311.294 134.333 312.177 134.85C313.06 135.367 313.719 136.017 314.152 136.8V134.3H316.452V148H314.152V145.45C313.702 146.25 313.027 146.917 312.127 147.45C311.244 147.967 310.21 148.225 309.027 148.225C307.81 148.225 306.71 147.925 305.727 147.325C304.744 146.725 303.969 145.883 303.402 144.8C302.835 143.717 302.552 142.483 302.552 141.1ZM314.152 141.125C314.152 140.092 313.944 139.192 313.527 138.425C313.11 137.658 312.544 137.075 311.827 136.675C311.127 136.258 310.352 136.05 309.502 136.05C308.652 136.05 307.877 136.25 307.177 136.65C306.477 137.05 305.919 137.633 305.502 138.4C305.085 139.167 304.877 140.067 304.877 141.1C304.877 142.15 305.085 143.067 305.502 143.85C305.919 144.617 306.477 145.208 307.177 145.625C307.877 146.025 308.652 146.225 309.502 146.225C310.352 146.225 311.127 146.025 311.827 145.625C312.544 145.208 313.11 144.617 313.527 143.85C313.944 143.067 314.152 142.158 314.152 141.125ZM326.972 134.05C328.638 134.05 329.988 134.558 331.022 135.575C332.055 136.575 332.572 138.025 332.572 139.925V148H330.322V140.25C330.322 138.883 329.98 137.842 329.297 137.125C328.613 136.392 327.68 136.025 326.497 136.025C325.297 136.025 324.338 136.4 323.622 137.15C322.922 137.9 322.572 138.992 322.572 140.425V148H320.297V134.3H322.572V136.25C323.022 135.55 323.63 135.008 324.397 134.625C325.18 134.242 326.038 134.05 326.972 134.05ZM339.238 130.575L338.963 143.075H337.063L336.788 130.575H339.238ZM338.113 148.15C337.679 148.15 337.313 148 337.013 147.7C336.713 147.4 336.563 147.033 336.563 146.6C336.563 146.167 336.713 145.8 337.013 145.5C337.313 145.2 337.679 145.05 338.113 145.05C338.529 145.05 338.879 145.2 339.163 145.5C339.463 145.8 339.613 146.167 339.613 146.6C339.613 147.033 339.463 147.4 339.163 147.7C338.879 148 338.529 148.15 338.113 148.15Z" fill="#4F4F4F"/>
<path d="M29.0178 233.275C29.0178 231.575 29.4094 230.05 30.1928 228.7C30.9928 227.35 32.0678 226.3 33.4178 225.55C34.7844 224.783 36.2761 224.4 37.8928 224.4C39.7428 224.4 41.3844 224.858 42.8178 225.775C44.2678 226.675 45.3178 227.958 45.9678 229.625H42.5428C42.0928 228.708 41.4678 228.025 40.6678 227.575C39.8678 227.125 38.9428 226.9 37.8928 226.9C36.7428 226.9 35.7178 227.158 34.8178 227.675C33.9178 228.192 33.2094 228.933 32.6928 229.9C32.1928 230.867 31.9428 231.992 31.9428 233.275C31.9428 234.558 32.1928 235.683 32.6928 236.65C33.2094 237.617 33.9178 238.367 34.8178 238.9C35.7178 239.417 36.7428 239.675 37.8928 239.675C38.9428 239.675 39.8678 239.45 40.6678 239C41.4678 238.55 42.0928 237.867 42.5428 236.95H45.9678C45.3178 238.617 44.2678 239.9 42.8178 240.8C41.3844 241.7 39.7428 242.15 37.8928 242.15C36.2594 242.15 34.7678 241.775 33.4178 241.025C32.0678 240.258 30.9928 239.2 30.1928 237.85C29.4094 236.5 29.0178 234.975 29.0178 233.275ZM52.1537 223.5V242H49.3037V223.5H52.1537ZM57.3455 226.4C56.8288 226.4 56.3955 226.225 56.0455 225.875C55.6955 225.525 55.5205 225.092 55.5205 224.575C55.5205 224.058 55.6955 223.625 56.0455 223.275C56.3955 222.925 56.8288 222.75 57.3455 222.75C57.8455 222.75 58.2705 222.925 58.6205 223.275C58.9705 223.625 59.1455 224.058 59.1455 224.575C59.1455 225.092 58.9705 225.525 58.6205 225.875C58.2705 226.225 57.8455 226.4 57.3455 226.4ZM58.7455 228.225V242H55.8955V228.225H58.7455ZM61.5373 235.1C61.5373 233.683 61.8206 232.442 62.3873 231.375C62.9706 230.292 63.7706 229.458 64.7873 228.875C65.804 228.292 66.9706 228 68.2873 228C69.954 228 71.329 228.4 72.4123 229.2C73.5123 229.983 74.254 231.108 74.6373 232.575H71.5623C71.3123 231.892 70.9123 231.358 70.3623 230.975C69.8123 230.592 69.1206 230.4 68.2873 230.4C67.1206 230.4 66.1873 230.817 65.4873 231.65C64.804 232.467 64.4623 233.617 64.4623 235.1C64.4623 236.583 64.804 237.742 65.4873 238.575C66.1873 239.408 67.1206 239.825 68.2873 239.825C69.9373 239.825 71.029 239.1 71.5623 237.65H74.6373C74.2373 239.05 73.4873 240.167 72.3873 241C71.2873 241.817 69.9206 242.225 68.2873 242.225C66.9706 242.225 65.804 241.933 64.7873 241.35C63.7706 240.75 62.9706 239.917 62.3873 238.85C61.8206 237.767 61.5373 236.517 61.5373 235.1ZM82.9275 235.125L89.2775 242H85.4275L80.3275 236.075V242H77.4775V223.5H80.3275V234.25L85.3275 228.225H89.2775L82.9275 235.125ZM103.789 242.225C102.489 242.225 101.314 241.933 100.264 241.35C99.2145 240.75 98.3895 239.917 97.7895 238.85C97.1895 237.767 96.8895 236.517 96.8895 235.1C96.8895 233.7 97.1978 232.458 97.8145 231.375C98.4311 230.292 99.2728 229.458 100.339 228.875C101.406 228.292 102.598 228 103.914 228C105.231 228 106.423 228.292 107.489 228.875C108.556 229.458 109.398 230.292 110.014 231.375C110.631 232.458 110.939 233.7 110.939 235.1C110.939 236.5 110.623 237.742 109.989 238.825C109.356 239.908 108.489 240.75 107.389 241.35C106.306 241.933 105.106 242.225 103.789 242.225ZM103.789 239.75C104.523 239.75 105.206 239.575 105.839 239.225C106.489 238.875 107.014 238.35 107.414 237.65C107.814 236.95 108.014 236.1 108.014 235.1C108.014 234.1 107.823 233.258 107.439 232.575C107.056 231.875 106.548 231.35 105.914 231C105.281 230.65 104.598 230.475 103.864 230.475C103.131 230.475 102.448 230.65 101.814 231C101.198 231.35 100.706 231.875 100.339 232.575C99.9728 233.258 99.7895 234.1 99.7895 235.1C99.7895 236.583 100.164 237.733 100.914 238.55C101.681 239.35 102.639 239.75 103.789 239.75ZM120.707 228C121.79 228 122.757 228.225 123.607 228.675C124.474 229.125 125.149 229.792 125.632 230.675C126.115 231.558 126.357 232.625 126.357 233.875V242H123.532V234.3C123.532 233.067 123.224 232.125 122.607 231.475C121.99 230.808 121.149 230.475 120.082 230.475C119.015 230.475 118.165 230.808 117.532 231.475C116.915 232.125 116.607 233.067 116.607 234.3V242H113.757V228.225H116.607V229.8C117.074 229.233 117.665 228.792 118.382 228.475C119.115 228.158 119.89 228 120.707 228ZM138.336 230.575H135.236L137.861 224.625H139.861L138.336 230.575ZM157.916 242H153.641L146.491 231.175V242H142.216V224.45H146.491L153.641 235.325V224.45H157.916V242ZM174.165 234.8C174.165 235.2 174.14 235.617 174.09 236.05H164.415C164.482 236.917 164.757 237.583 165.24 238.05C165.74 238.5 166.348 238.725 167.065 238.725C168.132 238.725 168.873 238.275 169.29 237.375H173.84C173.607 238.292 173.182 239.117 172.565 239.85C171.965 240.583 171.207 241.158 170.29 241.575C169.373 241.992 168.348 242.2 167.215 242.2C165.848 242.2 164.632 241.908 163.565 241.325C162.498 240.742 161.665 239.908 161.065 238.825C160.465 237.742 160.165 236.475 160.165 235.025C160.165 233.575 160.457 232.308 161.04 231.225C161.64 230.142 162.473 229.308 163.54 228.725C164.607 228.142 165.832 227.85 167.215 227.85C168.565 227.85 169.765 228.133 170.815 228.7C171.865 229.267 172.682 230.075 173.265 231.125C173.865 232.175 174.165 233.4 174.165 234.8ZM169.79 233.675C169.79 232.942 169.54 232.358 169.04 231.925C168.54 231.492 167.915 231.275 167.165 231.275C166.448 231.275 165.84 231.483 165.34 231.9C164.857 232.317 164.557 232.908 164.44 233.675H169.79ZM196.445 228.05L192.67 242H187.945L185.745 232.95L183.47 242H178.77L174.97 228.05H179.245L181.22 238.025L183.57 228.05H188.095L190.47 237.975L192.42 228.05H196.445ZM214.798 224.45V227.875H207.648V231.575H212.998V234.9H207.648V242H203.373V224.45H214.798ZM223.395 242.2C222.028 242.2 220.795 241.908 219.695 241.325C218.612 240.742 217.753 239.908 217.12 238.825C216.503 237.742 216.195 236.475 216.195 235.025C216.195 233.592 216.512 232.333 217.145 231.25C217.778 230.15 218.645 229.308 219.745 228.725C220.845 228.142 222.078 227.85 223.445 227.85C224.812 227.85 226.045 228.142 227.145 228.725C228.245 229.308 229.112 230.15 229.745 231.25C230.378 232.333 230.695 233.592 230.695 235.025C230.695 236.458 230.37 237.725 229.72 238.825C229.087 239.908 228.212 240.742 227.095 241.325C225.995 241.908 224.762 242.2 223.395 242.2ZM223.395 238.5C224.212 238.5 224.903 238.2 225.47 237.6C226.053 237 226.345 236.142 226.345 235.025C226.345 233.908 226.062 233.05 225.495 232.45C224.945 231.85 224.262 231.55 223.445 231.55C222.612 231.55 221.92 231.85 221.37 232.45C220.82 233.033 220.545 233.892 220.545 235.025C220.545 236.142 220.812 237 221.345 237.6C221.895 238.2 222.578 238.5 223.395 238.5ZM237.238 223.5V242H232.963V223.5H237.238ZM239.486 235C239.486 233.567 239.753 232.308 240.286 231.225C240.836 230.142 241.578 229.308 242.511 228.725C243.444 228.142 244.486 227.85 245.636 227.85C246.553 227.85 247.386 228.042 248.136 228.425C248.903 228.808 249.503 229.325 249.936 229.975V223.5H254.211V242H249.936V240C249.536 240.667 248.961 241.2 248.211 241.6C247.478 242 246.619 242.2 245.636 242.2C244.486 242.2 243.444 241.908 242.511 241.325C241.578 240.725 240.836 239.883 240.286 238.8C239.753 237.7 239.486 236.433 239.486 235ZM249.936 235.025C249.936 233.958 249.636 233.117 249.036 232.5C248.453 231.883 247.736 231.575 246.886 231.575C246.036 231.575 245.311 231.883 244.711 232.5C244.128 233.1 243.836 233.933 243.836 235C243.836 236.067 244.128 236.917 244.711 237.55C245.311 238.167 246.036 238.475 246.886 238.475C247.736 238.475 248.453 238.167 249.036 237.55C249.636 236.933 249.936 236.092 249.936 235.025ZM270.454 234.8C270.454 235.2 270.429 235.617 270.379 236.05H260.704C260.771 236.917 261.046 237.583 261.529 238.05C262.029 238.5 262.637 238.725 263.354 238.725C264.421 238.725 265.162 238.275 265.579 237.375H270.129C269.896 238.292 269.471 239.117 268.854 239.85C268.254 240.583 267.496 241.158 266.579 241.575C265.662 241.992 264.637 242.2 263.504 242.2C262.137 242.2 260.921 241.908 259.854 241.325C258.787 240.742 257.954 239.908 257.354 238.825C256.754 237.742 256.454 236.475 256.454 235.025C256.454 233.575 256.746 232.308 257.329 231.225C257.929 230.142 258.762 229.308 259.829 228.725C260.896 228.142 262.121 227.85 263.504 227.85C264.854 227.85 266.054 228.133 267.104 228.7C268.154 229.267 268.971 230.075 269.554 231.125C270.154 232.175 270.454 233.4 270.454 234.8ZM266.079 233.675C266.079 232.942 265.829 232.358 265.329 231.925C264.829 231.492 264.204 231.275 263.454 231.275C262.737 231.275 262.129 231.483 261.629 231.9C261.146 232.317 260.846 232.908 260.729 233.675H266.079ZM276.984 230.375C277.484 229.608 278.109 229.008 278.859 228.575C279.609 228.125 280.443 227.9 281.359 227.9V232.425H280.184C279.118 232.425 278.318 232.658 277.784 233.125C277.251 233.575 276.984 234.375 276.984 235.525V242H272.709V228.05H276.984V230.375ZM284.178 224.625H287.278L284.653 230.575H282.653L284.178 224.625ZM29.7172 268.275C30.2005 267.608 30.8589 267.067 31.6922 266.65C32.5422 266.217 33.4839 266 34.5172 266C35.7339 266 36.8339 266.292 37.8172 266.875C38.8005 267.458 39.5755 268.292 40.1422 269.375C40.7089 270.442 40.9922 271.667 40.9922 273.05C40.9922 274.433 40.7089 275.675 40.1422 276.775C39.5755 277.858 38.7922 278.708 37.7922 279.325C36.8089 279.925 35.7172 280.225 34.5172 280.225C33.4505 280.225 32.5005 280.017 31.6672 279.6C30.8505 279.183 30.2005 278.65 29.7172 278V280H26.8672V261.5H29.7172V268.275ZM38.0922 273.05C38.0922 272.1 37.8922 271.283 37.4922 270.6C37.1089 269.9 36.5922 269.375 35.9422 269.025C35.3089 268.658 34.6255 268.475 33.8922 268.475C33.1755 268.475 32.4922 268.658 31.8422 269.025C31.2089 269.392 30.6922 269.925 30.2922 270.625C29.9089 271.325 29.7172 272.15 29.7172 273.1C29.7172 274.05 29.9089 274.883 30.2922 275.6C30.6922 276.3 31.2089 276.833 31.8422 277.2C32.4922 277.567 33.1755 277.75 33.8922 277.75C34.6255 277.75 35.3089 277.567 35.9422 277.2C36.5922 276.817 37.1089 276.267 37.4922 275.55C37.8922 274.833 38.0922 274 38.0922 273.05ZM56.2855 266.225V280H53.4355V278.375C52.9855 278.942 52.3939 279.392 51.6605 279.725C50.9439 280.042 50.1772 280.2 49.3605 280.2C48.2772 280.2 47.3022 279.975 46.4355 279.525C45.5855 279.075 44.9105 278.408 44.4105 277.525C43.9272 276.642 43.6855 275.575 43.6855 274.325V266.225H46.5105V273.9C46.5105 275.133 46.8189 276.083 47.4355 276.75C48.0522 277.4 48.8939 277.725 49.9605 277.725C51.0272 277.725 51.8689 277.4 52.4855 276.75C53.1189 276.083 53.4355 275.133 53.4355 273.9V266.225H56.2855ZM63.3709 268.55V276.175C63.3709 276.692 63.4876 277.067 63.7209 277.3C63.9709 277.517 64.3876 277.625 64.9709 277.625H66.7209V280H64.4709C63.1876 280 62.2042 279.7 61.5209 279.1C60.8376 278.5 60.4959 277.525 60.4959 276.175V268.55H58.8709V266.225H60.4959V262.8H63.3709V266.225H66.7209V268.55H63.3709ZM72.6727 268.55V276.175C72.6727 276.692 72.7893 277.067 73.0227 277.3C73.2727 277.517 73.6893 277.625 74.2727 277.625H76.0227V280H73.7727C72.4893 280 71.506 279.7 70.8227 279.1C70.1393 278.5 69.7977 277.525 69.7977 276.175V268.55H68.1727V266.225H69.7977V262.8H72.6727V266.225H76.0227V268.55H72.6727ZM84.6244 280.225C83.3244 280.225 82.1494 279.933 81.0994 279.35C80.0494 278.75 79.2244 277.917 78.6244 276.85C78.0244 275.767 77.7244 274.517 77.7244 273.1C77.7244 271.7 78.0327 270.458 78.6494 269.375C79.2661 268.292 80.1077 267.458 81.1744 266.875C82.2411 266.292 83.4327 266 84.7494 266C86.0661 266 87.2577 266.292 88.3244 266.875C89.3911 267.458 90.2327 268.292 90.8494 269.375C91.4661 270.458 91.7744 271.7 91.7744 273.1C91.7744 274.5 91.4577 275.742 90.8244 276.825C90.1911 277.908 89.3244 278.75 88.2244 279.35C87.1411 279.933 85.9411 280.225 84.6244 280.225ZM84.6244 277.75C85.3577 277.75 86.0411 277.575 86.6744 277.225C87.3244 276.875 87.8494 276.35 88.2494 275.65C88.6494 274.95 88.8494 274.1 88.8494 273.1C88.8494 272.1 88.6577 271.258 88.2744 270.575C87.8911 269.875 87.3827 269.35 86.7494 269C86.1161 268.65 85.4327 268.475 84.6994 268.475C83.9661 268.475 83.2827 268.65 82.6494 269C82.0327 269.35 81.5411 269.875 81.1744 270.575C80.8077 271.258 80.6244 272.1 80.6244 273.1C80.6244 274.583 80.9994 275.733 81.7494 276.55C82.5161 277.35 83.4744 277.75 84.6244 277.75ZM101.542 266C102.625 266 103.592 266.225 104.442 266.675C105.308 267.125 105.983 267.792 106.467 268.675C106.95 269.558 107.192 270.625 107.192 271.875V280H104.367V272.3C104.367 271.067 104.058 270.125 103.442 269.475C102.825 268.808 101.983 268.475 100.917 268.475C99.8501 268.475 99.0001 268.808 98.3668 269.475C97.7501 270.125 97.4418 271.067 97.4418 272.3V280H94.5918V266.225H97.4418V267.8C97.9085 267.233 98.5001 266.792 99.2168 266.475C99.9501 266.158 100.725 266 101.542 266ZM120.646 268.55V276.175C120.646 276.692 120.763 277.067 120.996 277.3C121.246 277.517 121.663 277.625 122.246 277.625H123.996V280H121.746C120.463 280 119.48 279.7 118.796 279.1C118.113 278.5 117.771 277.525 117.771 276.175V268.55H116.146V266.225H117.771V262.8H120.646V266.225H123.996V268.55H120.646ZM132.598 280.225C131.298 280.225 130.123 279.933 129.073 279.35C128.023 278.75 127.198 277.917 126.598 276.85C125.998 275.767 125.698 274.517 125.698 273.1C125.698 271.7 126.006 270.458 126.623 269.375C127.24 268.292 128.081 267.458 129.148 266.875C130.215 266.292 131.406 266 132.723 266C134.04 266 135.231 266.292 136.298 266.875C137.365 267.458 138.206 268.292 138.823 269.375C139.44 270.458 139.748 271.7 139.748 273.1C139.748 274.5 139.431 275.742 138.798 276.825C138.165 277.908 137.298 278.75 136.198 279.35C135.115 279.933 133.915 280.225 132.598 280.225ZM132.598 277.75C133.331 277.75 134.015 277.575 134.648 277.225C135.298 276.875 135.823 276.35 136.223 275.65C136.623 274.95 136.823 274.1 136.823 273.1C136.823 272.1 136.631 271.258 136.248 270.575C135.865 269.875 135.356 269.35 134.723 269C134.09 268.65 133.406 268.475 132.673 268.475C131.94 268.475 131.256 268.65 130.623 269C130.006 269.35 129.515 269.875 129.148 270.575C128.781 271.258 128.598 272.1 128.598 273.1C128.598 274.583 128.973 275.733 129.723 276.55C130.49 277.35 131.448 277.75 132.598 277.75ZM148.11 273.1C148.11 271.683 148.393 270.442 148.96 269.375C149.543 268.292 150.343 267.458 151.36 266.875C152.376 266.292 153.543 266 154.86 266C156.526 266 157.901 266.4 158.985 267.2C160.085 267.983 160.826 269.108 161.21 270.575H158.135C157.885 269.892 157.485 269.358 156.935 268.975C156.385 268.592 155.693 268.4 154.86 268.4C153.693 268.4 152.76 268.817 152.06 269.65C151.376 270.467 151.035 271.617 151.035 273.1C151.035 274.583 151.376 275.742 152.06 276.575C152.76 277.408 153.693 277.825 154.86 277.825C156.51 277.825 157.601 277.1 158.135 275.65H161.21C160.81 277.05 160.06 278.167 158.96 279C157.86 279.817 156.493 280.225 154.86 280.225C153.543 280.225 152.376 279.933 151.36 279.35C150.343 278.75 149.543 277.917 148.96 276.85C148.393 275.767 148.11 274.517 148.11 273.1ZM166.9 268.225C167.316 267.525 167.866 266.983 168.55 266.6C169.25 266.2 170.075 266 171.025 266V268.95H170.3C169.183 268.95 168.333 269.233 167.75 269.8C167.183 270.367 166.9 271.35 166.9 272.75V280H164.05V266.225H166.9V268.225ZM186.27 272.775C186.27 273.292 186.236 273.758 186.17 274.175H175.645C175.728 275.275 176.136 276.158 176.87 276.825C177.603 277.492 178.503 277.825 179.57 277.825C181.103 277.825 182.186 277.183 182.82 275.9H185.895C185.478 277.167 184.72 278.208 183.62 279.025C182.536 279.825 181.186 280.225 179.57 280.225C178.253 280.225 177.07 279.933 176.02 279.35C174.986 278.75 174.17 277.917 173.57 276.85C172.986 275.767 172.695 274.517 172.695 273.1C172.695 271.683 172.978 270.442 173.545 269.375C174.128 268.292 174.936 267.458 175.97 266.875C177.02 266.292 178.22 266 179.57 266C180.87 266 182.028 266.283 183.045 266.85C184.061 267.417 184.853 268.217 185.42 269.25C185.986 270.267 186.27 271.442 186.27 272.775ZM183.295 271.875C183.278 270.825 182.903 269.983 182.17 269.35C181.436 268.717 180.528 268.4 179.445 268.4C178.461 268.4 177.62 268.717 176.92 269.35C176.22 269.967 175.803 270.808 175.67 271.875H183.295ZM188.124 273.05C188.124 271.667 188.408 270.442 188.974 269.375C189.558 268.308 190.341 267.483 191.324 266.9C192.324 266.3 193.424 266 194.624 266C195.708 266 196.649 266.217 197.449 266.65C198.266 267.067 198.916 267.592 199.399 268.225V266.225H202.274V280H199.399V277.95C198.916 278.6 198.258 279.142 197.424 279.575C196.591 280.008 195.641 280.225 194.574 280.225C193.391 280.225 192.308 279.925 191.324 279.325C190.341 278.708 189.558 277.858 188.974 276.775C188.408 275.675 188.124 274.433 188.124 273.05ZM199.399 273.1C199.399 272.15 199.199 271.325 198.799 270.625C198.416 269.925 197.908 269.392 197.274 269.025C196.641 268.658 195.958 268.475 195.224 268.475C194.491 268.475 193.808 268.658 193.174 269.025C192.541 269.375 192.024 269.9 191.624 270.6C191.241 271.283 191.049 272.1 191.049 273.05C191.049 274 191.241 274.833 191.624 275.55C192.024 276.267 192.541 276.817 193.174 277.2C193.824 277.567 194.508 277.75 195.224 277.75C195.958 277.75 196.641 277.567 197.274 277.2C197.908 276.833 198.416 276.3 198.799 275.6C199.199 274.883 199.399 274.05 199.399 273.1ZM209.343 268.55V276.175C209.343 276.692 209.459 277.067 209.693 277.3C209.943 277.517 210.359 277.625 210.943 277.625H212.693V280H210.443C209.159 280 208.176 279.7 207.493 279.1C206.809 278.5 206.468 277.525 206.468 276.175V268.55H204.843V266.225H206.468V262.8H209.343V266.225H212.693V268.55H209.343ZM227.944 272.775C227.944 273.292 227.911 273.758 227.844 274.175H217.319C217.403 275.275 217.811 276.158 218.544 276.825C219.278 277.492 220.178 277.825 221.244 277.825C222.778 277.825 223.861 277.183 224.494 275.9H227.569C227.153 277.167 226.394 278.208 225.294 279.025C224.211 279.825 222.861 280.225 221.244 280.225C219.928 280.225 218.744 279.933 217.694 279.35C216.661 278.75 215.844 277.917 215.244 276.85C214.661 275.767 214.369 274.517 214.369 273.1C214.369 271.683 214.653 270.442 215.219 269.375C215.803 268.292 216.611 267.458 217.644 266.875C218.694 266.292 219.894 266 221.244 266C222.544 266 223.703 266.283 224.719 266.85C225.736 267.417 226.528 268.217 227.094 269.25C227.661 270.267 227.944 271.442 227.944 272.775ZM224.969 271.875C224.953 270.825 224.578 269.983 223.844 269.35C223.111 268.717 222.203 268.4 221.119 268.4C220.136 268.4 219.294 268.717 218.594 269.35C217.894 269.967 217.478 270.808 217.344 271.875H224.969ZM243.218 280.225C241.918 280.225 240.743 279.933 239.693 279.35C238.643 278.75 237.818 277.917 237.218 276.85C236.618 275.767 236.318 274.517 236.318 273.1C236.318 271.7 236.626 270.458 237.243 269.375C237.86 268.292 238.701 267.458 239.768 266.875C240.835 266.292 242.026 266 243.343 266C244.66 266 245.851 266.292 246.918 266.875C247.985 267.458 248.826 268.292 249.443 269.375C250.06 270.458 250.368 271.7 250.368 273.1C250.368 274.5 250.051 275.742 249.418 276.825C248.785 277.908 247.918 278.75 246.818 279.35C245.735 279.933 244.535 280.225 243.218 280.225ZM243.218 277.75C243.951 277.75 244.635 277.575 245.268 277.225C245.918 276.875 246.443 276.35 246.843 275.65C247.243 274.95 247.443 274.1 247.443 273.1C247.443 272.1 247.251 271.258 246.868 270.575C246.485 269.875 245.976 269.35 245.343 269C244.71 268.65 244.026 268.475 243.293 268.475C242.56 268.475 241.876 268.65 241.243 269C240.626 269.35 240.135 269.875 239.768 270.575C239.401 271.258 239.218 272.1 239.218 273.1C239.218 274.583 239.593 275.733 240.343 276.55C241.11 277.35 242.068 277.75 243.218 277.75ZM260.136 266C261.219 266 262.186 266.225 263.036 266.675C263.902 267.125 264.577 267.792 265.061 268.675C265.544 269.558 265.786 270.625 265.786 271.875V280H262.961V272.3C262.961 271.067 262.652 270.125 262.036 269.475C261.419 268.808 260.577 268.475 259.511 268.475C258.444 268.475 257.594 268.808 256.961 269.475C256.344 270.125 256.036 271.067 256.036 272.3V280H253.186V266.225H256.036V267.8C256.502 267.233 257.094 266.792 257.811 266.475C258.544 266.158 259.319 266 260.136 266ZM282.046 272.775C282.046 273.292 282.013 273.758 281.946 274.175H271.421C271.504 275.275 271.913 276.158 272.646 276.825C273.379 277.492 274.279 277.825 275.346 277.825C276.879 277.825 277.963 277.183 278.596 275.9H281.671C281.254 277.167 280.496 278.208 279.396 279.025C278.313 279.825 276.963 280.225 275.346 280.225C274.029 280.225 272.846 279.933 271.796 279.35C270.763 278.75 269.946 277.917 269.346 276.85C268.763 275.767 268.471 274.517 268.471 273.1C268.471 271.683 268.754 270.442 269.321 269.375C269.904 268.292 270.713 267.458 271.746 266.875C272.796 266.292 273.996 266 275.346 266C276.646 266 277.804 266.283 278.821 266.85C279.838 267.417 280.629 268.217 281.196 269.25C281.763 270.267 282.046 271.442 282.046 272.775ZM279.071 271.875C279.054 270.825 278.679 269.983 277.946 269.35C277.213 268.717 276.304 268.4 275.221 268.4C274.238 268.4 273.396 268.717 272.696 269.35C271.996 269.967 271.579 270.808 271.446 271.875H279.071ZM288.426 262.625L288.101 274.75H285.726L285.401 262.625H288.426ZM287.001 280.175C286.484 280.175 286.051 280 285.701 279.65C285.351 279.3 285.176 278.867 285.176 278.35C285.176 277.833 285.351 277.4 285.701 277.05C286.051 276.7 286.484 276.525 287.001 276.525C287.501 276.525 287.926 276.7 288.276 277.05C288.626 277.4 288.801 277.833 288.801 278.35C288.801 278.867 288.626 279.3 288.276 279.65C287.926 280 287.501 280.175 287.001 280.175Z" fill="#4F4F4F"/>
</g>
<defs>
<clipPath id="clip0">
<rect width="480" height="480" fill="white"/>
</clipPath>
</defs>
</svg>
