<svg width="360" height="360" viewBox="0 0 360 360" fill="none" xmlns="http://www.w3.org/2000/svg">
<path d="M84.1982 230.56C84.1982 227.798 86.4368 225.56 89.1982 225.56H110.06C112.822 225.56 115.06 227.798 115.06 230.56V262.96C115.06 265.722 112.822 267.96 110.06 267.96H89.1982C86.4368 267.96 84.1982 265.722 84.1982 262.96V230.56Z" fill="#2D9CDB" fill-opacity="0.75"/>
<rect x="83.9741" y="225" width="30.8619" height="42.4003" rx="5" transform="rotate(15 83.9741 225)" fill="#2F80ED" fill-opacity="0.75"/>
<line x1="85.8466" y1="231.864" x2="103.091" y2="236.485" stroke="white" stroke-opacity="0.75" stroke-width="3" stroke-linecap="round"/>
<line x1="84.5871" y1="236.564" x2="107.203" y2="242.624" stroke="white" stroke-opacity="0.75" stroke-width="3" stroke-linecap="round"/>
<line x1="83.3278" y1="241.264" x2="104.601" y2="246.964" stroke="white" stroke-opacity="0.75" stroke-width="3" stroke-linecap="round"/>
<line x1="82.0686" y1="245.964" x2="103.341" y2="251.664" stroke="white" stroke-opacity="0.75" stroke-width="3" stroke-linecap="round"/>
<line x1="80.8093" y1="250.664" x2="98.0536" y2="255.284" stroke="white" stroke-opacity="0.75" stroke-width="3" stroke-linecap="round"/>
<line x1="79.55" y1="255.364" x2="102.166" y2="261.423" stroke="white" stroke-opacity="0.75" stroke-width="3" stroke-linecap="round"/>
<path d="M145.31 262H140.41L129.315 245.235V262H124.415V237.535H129.315L140.41 254.335V237.535H145.31V262ZM161.492 262.245C159.206 262.245 157.106 261.708 155.192 260.635C153.279 259.562 151.762 258.08 150.642 256.19C149.522 254.277 148.962 252.118 148.962 249.715C148.962 247.335 149.522 245.2 150.642 243.31C151.762 241.397 153.279 239.903 155.192 238.83C157.106 237.757 159.206 237.22 161.492 237.22C163.802 237.22 165.902 237.757 167.792 238.83C169.706 239.903 171.211 241.397 172.307 243.31C173.427 245.2 173.987 247.335 173.987 249.715C173.987 252.118 173.427 254.277 172.307 256.19C171.211 258.08 169.706 259.562 167.792 260.635C165.879 261.708 163.779 262.245 161.492 262.245ZM161.492 257.87C162.962 257.87 164.257 257.543 165.377 256.89C166.497 256.213 167.372 255.257 168.002 254.02C168.632 252.783 168.947 251.348 168.947 249.715C168.947 248.082 168.632 246.658 168.002 245.445C167.372 244.208 166.497 243.263 165.377 242.61C164.257 241.957 162.962 241.63 161.492 241.63C160.022 241.63 158.716 241.957 157.572 242.61C156.452 243.263 155.577 244.208 154.947 245.445C154.317 246.658 154.002 248.082 154.002 249.715C154.002 251.348 154.317 252.783 154.947 254.02C155.577 255.257 156.452 256.213 157.572 256.89C158.716 257.543 160.022 257.87 161.492 257.87ZM194.258 237.57V241.525H187.748V262H182.848V241.525H176.338V237.57H194.258ZM202.733 241.525V247.65H210.958V251.535H202.733V258.01H212.008V262H197.833V237.535H212.008V241.525H202.733ZM229.061 262L223.671 252.48H221.361V262H216.461V237.57H225.631C227.521 237.57 229.131 237.908 230.461 238.585C231.791 239.238 232.783 240.137 233.436 241.28C234.113 242.4 234.451 243.66 234.451 245.06C234.451 246.67 233.984 248.128 233.051 249.435C232.118 250.718 230.729 251.605 228.886 252.095L234.731 262H229.061ZM221.361 248.805H225.456C226.786 248.805 227.778 248.49 228.431 247.86C229.084 247.207 229.411 246.308 229.411 245.165C229.411 244.045 229.084 243.182 228.431 242.575C227.778 241.945 226.786 241.63 225.456 241.63H221.361V248.805ZM247.318 262.245C245.614 262.245 244.074 261.953 242.698 261.37C241.344 260.787 240.271 259.947 239.478 258.85C238.684 257.753 238.276 256.458 238.253 254.965H243.503C243.573 255.968 243.923 256.762 244.553 257.345C245.206 257.928 246.093 258.22 247.213 258.22C248.356 258.22 249.254 257.952 249.908 257.415C250.561 256.855 250.888 256.132 250.888 255.245C250.888 254.522 250.666 253.927 250.223 253.46C249.779 252.993 249.219 252.632 248.543 252.375C247.889 252.095 246.979 251.792 245.813 251.465C244.226 250.998 242.931 250.543 241.928 250.1C240.948 249.633 240.096 248.945 239.373 248.035C238.673 247.102 238.323 245.865 238.323 244.325C238.323 242.878 238.684 241.618 239.408 240.545C240.131 239.472 241.146 238.655 242.453 238.095C243.759 237.512 245.253 237.22 246.933 237.22C249.453 237.22 251.494 237.838 253.058 239.075C254.644 240.288 255.519 241.992 255.683 244.185H250.293C250.246 243.345 249.884 242.657 249.208 242.12C248.554 241.56 247.679 241.28 246.583 241.28C245.626 241.28 244.856 241.525 244.273 242.015C243.713 242.505 243.433 243.217 243.433 244.15C243.433 244.803 243.643 245.352 244.063 245.795C244.506 246.215 245.043 246.565 245.673 246.845C246.326 247.102 247.236 247.405 248.403 247.755C249.989 248.222 251.284 248.688 252.288 249.155C253.291 249.622 254.154 250.322 254.878 251.255C255.601 252.188 255.963 253.413 255.963 254.93C255.963 256.237 255.624 257.45 254.948 258.57C254.271 259.69 253.279 260.588 251.973 261.265C250.666 261.918 249.114 262.245 247.318 262.245ZM266.546 237.15L265.986 254.055H261.856L261.261 237.15H266.546ZM264.026 262.245C263.139 262.245 262.404 261.977 261.821 261.44C261.261 260.88 260.981 260.192 260.981 259.375C260.981 258.558 261.261 257.882 261.821 257.345C262.404 256.785 263.139 256.505 264.026 256.505C264.889 256.505 265.601 256.785 266.161 257.345C266.721 257.882 267.001 258.558 267.001 259.375C267.001 260.192 266.721 260.88 266.161 261.44C265.601 261.977 264.889 262.245 264.026 262.245ZM278.919 237.15L278.359 254.055H274.229L273.634 237.15H278.919ZM276.399 262.245C275.512 262.245 274.777 261.977 274.194 261.44C273.634 260.88 273.354 260.192 273.354 259.375C273.354 258.558 273.634 257.882 274.194 257.345C274.777 256.785 275.512 256.505 276.399 256.505C277.262 256.505 277.974 256.785 278.534 257.345C279.094 257.882 279.374 258.558 279.374 259.375C279.374 260.192 279.094 260.88 278.534 261.44C277.974 261.977 277.262 262.245 276.399 262.245Z" fill="white" fill-opacity="0.75"/>
<path d="M108.07 194.57L101.245 219H95.47L90.885 201.605L86.09 219L80.35 219.035L73.77 194.57H79.02L83.325 213.54L88.295 194.57H93.755L98.445 213.435L102.785 194.57H108.07ZM129.294 208.885C129.294 209.585 129.248 210.215 129.154 210.775H114.979C115.096 212.175 115.586 213.272 116.449 214.065C117.313 214.858 118.374 215.255 119.634 215.255C121.454 215.255 122.749 214.473 123.519 212.91H128.804C128.244 214.777 127.171 216.317 125.584 217.53C123.998 218.72 122.049 219.315 119.739 219.315C117.873 219.315 116.193 218.907 114.699 218.09C113.229 217.25 112.074 216.072 111.234 214.555C110.418 213.038 110.009 211.288 110.009 209.305C110.009 207.298 110.418 205.537 111.234 204.02C112.051 202.503 113.194 201.337 114.664 200.52C116.134 199.703 117.826 199.295 119.739 199.295C121.583 199.295 123.228 199.692 124.674 200.485C126.144 201.278 127.276 202.41 128.069 203.88C128.886 205.327 129.294 206.995 129.294 208.885ZM124.219 207.485C124.196 206.225 123.741 205.222 122.854 204.475C121.968 203.705 120.883 203.32 119.599 203.32C118.386 203.32 117.359 203.693 116.519 204.44C115.703 205.163 115.201 206.178 115.014 207.485H124.219ZM137.771 193.1V219H132.871V193.1H137.771ZM141.352 209.305C141.352 207.298 141.761 205.548 142.577 204.055C143.394 202.538 144.526 201.372 145.972 200.555C147.419 199.715 149.076 199.295 150.942 199.295C153.346 199.295 155.329 199.902 156.892 201.115C158.479 202.305 159.541 203.985 160.077 206.155H154.792C154.512 205.315 154.034 204.662 153.357 204.195C152.704 203.705 151.887 203.46 150.907 203.46C149.507 203.46 148.399 203.973 147.582 205C146.766 206.003 146.357 207.438 146.357 209.305C146.357 211.148 146.766 212.583 147.582 213.61C148.399 214.613 149.507 215.115 150.907 215.115C152.891 215.115 154.186 214.228 154.792 212.455H160.077C159.541 214.555 158.479 216.223 156.892 217.46C155.306 218.697 153.322 219.315 150.942 219.315C149.076 219.315 147.419 218.907 145.972 218.09C144.526 217.25 143.394 216.083 142.577 214.59C141.761 213.073 141.352 211.312 141.352 209.305ZM172.277 219.315C170.41 219.315 168.73 218.907 167.237 218.09C165.744 217.25 164.565 216.072 163.702 214.555C162.862 213.038 162.442 211.288 162.442 209.305C162.442 207.322 162.874 205.572 163.737 204.055C164.624 202.538 165.825 201.372 167.342 200.555C168.859 199.715 170.55 199.295 172.417 199.295C174.284 199.295 175.975 199.715 177.492 200.555C179.009 201.372 180.199 202.538 181.062 204.055C181.949 205.572 182.392 207.322 182.392 209.305C182.392 211.288 181.937 213.038 181.027 214.555C180.14 216.072 178.927 217.25 177.387 218.09C175.87 218.907 174.167 219.315 172.277 219.315ZM172.277 215.045C173.164 215.045 173.992 214.835 174.762 214.415C175.555 213.972 176.185 213.318 176.652 212.455C177.119 211.592 177.352 210.542 177.352 209.305C177.352 207.462 176.862 206.05 175.882 205.07C174.925 204.067 173.747 203.565 172.347 203.565C170.947 203.565 169.769 204.067 168.812 205.07C167.879 206.05 167.412 207.462 167.412 209.305C167.412 211.148 167.867 212.572 168.777 213.575C169.71 214.555 170.877 215.045 172.277 215.045ZM210.066 199.33C212.446 199.33 214.36 200.065 215.806 201.535C217.276 202.982 218.011 205.012 218.011 207.625V219H213.111V208.29C213.111 206.773 212.726 205.618 211.956 204.825C211.186 204.008 210.136 203.6 208.806 203.6C207.476 203.6 206.415 204.008 205.621 204.825C204.851 205.618 204.466 206.773 204.466 208.29V219H199.566V208.29C199.566 206.773 199.181 205.618 198.411 204.825C197.641 204.008 196.591 203.6 195.261 203.6C193.908 203.6 192.835 204.008 192.041 204.825C191.271 205.618 190.886 206.773 190.886 208.29V219H185.986V199.61H190.886V201.955C191.516 201.138 192.321 200.497 193.301 200.03C194.305 199.563 195.401 199.33 196.591 199.33C198.108 199.33 199.461 199.657 200.651 200.31C201.841 200.94 202.763 201.85 203.416 203.04C204.046 201.92 204.956 201.022 206.146 200.345C207.36 199.668 208.666 199.33 210.066 199.33ZM240.686 208.885C240.686 209.585 240.639 210.215 240.546 210.775H226.371C226.488 212.175 226.978 213.272 227.841 214.065C228.704 214.858 229.766 215.255 231.026 215.255C232.846 215.255 234.141 214.473 234.911 212.91H240.196C239.636 214.777 238.563 216.317 236.976 217.53C235.389 218.72 233.441 219.315 231.131 219.315C229.264 219.315 227.584 218.907 226.091 218.09C224.621 217.25 223.466 216.072 222.626 214.555C221.809 213.038 221.401 211.288 221.401 209.305C221.401 207.298 221.809 205.537 222.626 204.02C223.443 202.503 224.586 201.337 226.056 200.52C227.526 199.703 229.218 199.295 231.131 199.295C232.974 199.295 234.619 199.692 236.066 200.485C237.536 201.278 238.668 202.41 239.461 203.88C240.278 205.327 240.686 206.995 240.686 208.885ZM235.611 207.485C235.588 206.225 235.133 205.222 234.246 204.475C233.359 203.705 232.274 203.32 230.991 203.32C229.778 203.32 228.751 203.693 227.911 204.44C227.094 205.163 226.593 206.178 226.406 207.485H235.611ZM258.308 203.635V213.015C258.308 213.668 258.459 214.147 258.763 214.45C259.089 214.73 259.626 214.87 260.373 214.87H262.648V219H259.568C255.438 219 253.373 216.993 253.373 212.98V203.635H251.063V199.61H253.373V194.815H258.308V199.61H262.648V203.635H258.308ZM274.782 219.315C272.915 219.315 271.235 218.907 269.742 218.09C268.249 217.25 267.07 216.072 266.207 214.555C265.367 213.038 264.947 211.288 264.947 209.305C264.947 207.322 265.379 205.572 266.242 204.055C267.129 202.538 268.33 201.372 269.847 200.555C271.364 199.715 273.055 199.295 274.922 199.295C276.789 199.295 278.48 199.715 279.997 200.555C281.514 201.372 282.704 202.538 283.567 204.055C284.454 205.572 284.897 207.322 284.897 209.305C284.897 211.288 284.442 213.038 283.532 214.555C282.645 216.072 281.432 217.25 279.892 218.09C278.375 218.907 276.672 219.315 274.782 219.315ZM274.782 215.045C275.669 215.045 276.497 214.835 277.267 214.415C278.06 213.972 278.69 213.318 279.157 212.455C279.624 211.592 279.857 210.542 279.857 209.305C279.857 207.462 279.367 206.05 278.387 205.07C277.43 204.067 276.252 203.565 274.852 203.565C273.452 203.565 272.274 204.067 271.317 205.07C270.384 206.05 269.917 207.462 269.917 209.305C269.917 211.148 270.372 212.572 271.282 213.575C272.215 214.555 273.382 215.045 274.782 215.045Z" fill="white" fill-opacity="0.75"/>
<path d="M33.686 29.2724C33.2842 28.8935 32.6513 28.9122 32.2724 29.314L26.0983 35.8623C25.7194 36.2641 25.738 36.897 26.1399 37.2759C26.5417 37.6548 27.1746 37.6362 27.5535 37.2343L33.0416 31.4136L38.8623 36.9017C39.2641 37.2806 39.897 37.262 40.2759 36.8601C40.6548 36.4583 40.6362 35.8254 40.2343 35.4465L33.686 29.2724ZM32.0004 30.0294C32.1249 34.2626 32.125 38.5133 32.1309 42.728C32.1367 46.9369 32.1484 51.1102 32.2976 55.1618C32.5955 63.2541 33.4434 70.947 35.9387 77.6011C38.4457 84.2865 42.6164 89.9236 49.5195 93.8682C56.3957 97.7975 65.8997 100 79 100V98C66.1003 98 56.9793 95.8275 50.5118 92.1318C44.0711 88.4514 40.1793 83.2135 37.8113 76.8989C35.4316 70.553 34.592 63.1209 34.2962 55.0882C34.1485 51.0773 34.1367 46.9381 34.1309 42.7252C34.125 38.518 34.1251 34.2374 33.9996 29.9706L32.0004 30.0294Z" fill="#F2F2F2" fill-opacity="0.75"/>
<path d="M90.525 87.75C90.525 86.72 90.755 85.8 91.215 84.99C91.685 84.17 92.32 83.535 93.12 83.085C93.93 82.625 94.835 82.395 95.835 82.395C97.005 82.395 98.03 82.695 98.91 83.295C99.79 83.895 100.405 84.725 100.755 85.785H98.34C98.1 85.285 97.76 84.91 97.32 84.66C96.89 84.41 96.39 84.285 95.82 84.285C95.21 84.285 94.665 84.43 94.185 84.72C93.715 85 93.345 85.4 93.075 85.92C92.815 86.44 92.685 87.05 92.685 87.75C92.685 88.44 92.815 89.05 93.075 89.58C93.345 90.1 93.715 90.505 94.185 90.795C94.665 91.075 95.21 91.215 95.82 91.215C96.39 91.215 96.89 91.09 97.32 90.84C97.76 90.58 98.1 90.2 98.34 89.7H100.755C100.405 90.77 99.79 91.605 98.91 92.205C98.04 92.795 97.015 93.09 95.835 93.09C94.835 93.09 93.93 92.865 93.12 92.415C92.32 91.955 91.685 91.32 91.215 90.51C90.755 89.7 90.525 88.78 90.525 87.75ZM104.649 81.9V93H102.549V81.9H104.649ZM107.788 83.7C107.418 83.7 107.108 83.585 106.858 83.355C106.618 83.115 106.498 82.82 106.498 82.47C106.498 82.12 106.618 81.83 106.858 81.6C107.108 81.36 107.418 81.24 107.788 81.24C108.158 81.24 108.463 81.36 108.703 81.6C108.953 81.83 109.078 82.12 109.078 82.47C109.078 82.82 108.953 83.115 108.703 83.355C108.463 83.585 108.158 83.7 107.788 83.7ZM108.823 84.69V93H106.723V84.69H108.823ZM110.358 88.845C110.358 87.985 110.533 87.235 110.883 86.595C111.233 85.945 111.718 85.445 112.338 85.095C112.958 84.735 113.668 84.555 114.468 84.555C115.498 84.555 116.348 84.815 117.018 85.335C117.698 85.845 118.153 86.565 118.383 87.495H116.118C115.998 87.135 115.793 86.855 115.503 86.655C115.223 86.445 114.873 86.34 114.453 86.34C113.853 86.34 113.378 86.56 113.028 87C112.678 87.43 112.503 88.045 112.503 88.845C112.503 89.635 112.678 90.25 113.028 90.69C113.378 91.12 113.853 91.335 114.453 91.335C115.303 91.335 115.858 90.955 116.118 90.195H118.383C118.153 91.095 117.698 91.81 117.018 92.34C116.338 92.87 115.488 93.135 114.468 93.135C113.668 93.135 112.958 92.96 112.338 92.61C111.718 92.25 111.233 91.75 110.883 91.11C110.533 90.46 110.358 89.705 110.358 88.845ZM124.842 93L122.022 89.46V93H119.922V81.9H122.022V88.215L124.812 84.69H127.542L123.882 88.86L127.572 93H124.842ZM136.936 84.57C137.566 84.57 138.126 84.71 138.616 84.99C139.106 85.26 139.486 85.665 139.756 86.205C140.036 86.735 140.176 87.375 140.176 88.125V93H138.076V88.41C138.076 87.75 137.911 87.245 137.581 86.895C137.251 86.535 136.801 86.355 136.231 86.355C135.651 86.355 135.191 86.535 134.851 86.895C134.521 87.245 134.356 87.75 134.356 88.41V93H132.256V81.9H134.356V85.725C134.626 85.365 134.986 85.085 135.436 84.885C135.886 84.675 136.386 84.57 136.936 84.57ZM149.898 88.665C149.898 88.965 149.878 89.235 149.838 89.475H143.763C143.813 90.075 144.023 90.545 144.393 90.885C144.763 91.225 145.218 91.395 145.758 91.395C146.538 91.395 147.093 91.06 147.423 90.39H149.688C149.448 91.19 148.988 91.85 148.308 92.37C147.628 92.88 146.793 93.135 145.803 93.135C145.003 93.135 144.283 92.96 143.643 92.61C143.013 92.25 142.518 91.745 142.158 91.095C141.808 90.445 141.633 89.695 141.633 88.845C141.633 87.985 141.808 87.23 142.158 86.58C142.508 85.93 142.998 85.43 143.628 85.08C144.258 84.73 144.983 84.555 145.803 84.555C146.593 84.555 147.298 84.725 147.918 85.065C148.548 85.405 149.033 85.89 149.373 86.52C149.723 87.14 149.898 87.855 149.898 88.665ZM147.723 88.065C147.713 87.525 147.518 87.095 147.138 86.775C146.758 86.445 146.293 86.28 145.743 86.28C145.223 86.28 144.783 86.44 144.423 86.76C144.073 87.07 143.858 87.505 143.778 88.065H147.723ZM153.531 85.98C153.801 85.54 154.151 85.195 154.581 84.945C155.021 84.695 155.521 84.57 156.081 84.57V86.775H155.526C154.866 86.775 154.366 86.93 154.026 87.24C153.696 87.55 153.531 88.09 153.531 88.86V93H151.431V84.69H153.531V85.98ZM165.22 88.665C165.22 88.965 165.2 89.235 165.16 89.475H159.085C159.135 90.075 159.345 90.545 159.715 90.885C160.085 91.225 160.54 91.395 161.08 91.395C161.86 91.395 162.415 91.06 162.745 90.39H165.01C164.77 91.19 164.31 91.85 163.63 92.37C162.95 92.88 162.115 93.135 161.125 93.135C160.325 93.135 159.605 92.96 158.965 92.61C158.335 92.25 157.84 91.745 157.48 91.095C157.13 90.445 156.955 89.695 156.955 88.845C156.955 87.985 157.13 87.23 157.48 86.58C157.83 85.93 158.32 85.43 158.95 85.08C159.58 84.73 160.305 84.555 161.125 84.555C161.915 84.555 162.62 84.725 163.24 85.065C163.87 85.405 164.355 85.89 164.695 86.52C165.045 87.14 165.22 87.855 165.22 88.665ZM163.045 88.065C163.035 87.525 162.84 87.095 162.46 86.775C162.08 86.445 161.615 86.28 161.065 86.28C160.545 86.28 160.105 86.44 159.745 86.76C159.395 87.07 159.18 87.505 159.1 88.065H163.045ZM172.772 86.415V90.435C172.772 90.715 172.837 90.92 172.967 91.05C173.107 91.17 173.337 91.23 173.657 91.23H174.632V93H173.312C171.542 93 170.657 92.14 170.657 90.42V86.415H169.667V84.69H170.657V82.635H172.772V84.69H174.632V86.415H172.772ZM179.832 93.135C179.032 93.135 178.312 92.96 177.672 92.61C177.032 92.25 176.527 91.745 176.157 91.095C175.797 90.445 175.617 89.695 175.617 88.845C175.617 87.995 175.802 87.245 176.172 86.595C176.552 85.945 177.067 85.445 177.717 85.095C178.367 84.735 179.092 84.555 179.892 84.555C180.692 84.555 181.417 84.735 182.067 85.095C182.717 85.445 183.227 85.945 183.597 86.595C183.977 87.245 184.167 87.995 184.167 88.845C184.167 89.695 183.972 90.445 183.582 91.095C183.202 91.745 182.682 92.25 182.022 92.61C181.372 92.96 180.642 93.135 179.832 93.135ZM179.832 91.305C180.212 91.305 180.567 91.215 180.897 91.035C181.237 90.845 181.507 90.565 181.707 90.195C181.907 89.825 182.007 89.375 182.007 88.845C182.007 88.055 181.797 87.45 181.377 87.03C180.967 86.6 180.462 86.385 179.862 86.385C179.262 86.385 178.757 86.6 178.347 87.03C177.947 87.45 177.747 88.055 177.747 88.845C177.747 89.635 177.942 90.245 178.332 90.675C178.732 91.095 179.232 91.305 179.832 91.305ZM188.742 88.815C188.742 87.975 188.907 87.23 189.237 86.58C189.577 85.93 190.032 85.43 190.602 85.08C191.182 84.73 191.827 84.555 192.537 84.555C193.157 84.555 193.697 84.68 194.157 84.93C194.627 85.18 195.002 85.495 195.282 85.875V84.69H197.397V93H195.282V91.785C195.012 92.175 194.637 92.5 194.157 92.76C193.687 93.01 193.142 93.135 192.522 93.135C191.822 93.135 191.182 92.955 190.602 92.595C190.032 92.235 189.577 91.73 189.237 91.08C188.907 90.42 188.742 89.665 188.742 88.815ZM195.282 88.845C195.282 88.335 195.182 87.9 194.982 87.54C194.782 87.17 194.512 86.89 194.172 86.7C193.832 86.5 193.467 86.4 193.077 86.4C192.687 86.4 192.327 86.495 191.997 86.685C191.667 86.875 191.397 87.155 191.187 87.525C190.987 87.885 190.887 88.315 190.887 88.815C190.887 89.315 190.987 89.755 191.187 90.135C191.397 90.505 191.667 90.79 191.997 90.99C192.337 91.19 192.697 91.29 193.077 91.29C193.467 91.29 193.832 91.195 194.172 91.005C194.512 90.805 194.782 90.525 194.982 90.165C195.182 89.795 195.282 89.355 195.282 88.845ZM198.908 88.845C198.908 87.985 199.083 87.235 199.433 86.595C199.783 85.945 200.268 85.445 200.888 85.095C201.508 84.735 202.218 84.555 203.018 84.555C204.048 84.555 204.898 84.815 205.568 85.335C206.248 85.845 206.703 86.565 206.933 87.495H204.668C204.548 87.135 204.343 86.855 204.053 86.655C203.773 86.445 203.423 86.34 203.003 86.34C202.403 86.34 201.928 86.56 201.578 87C201.228 87.43 201.053 88.045 201.053 88.845C201.053 89.635 201.228 90.25 201.578 90.69C201.928 91.12 202.403 91.335 203.003 91.335C203.853 91.335 204.408 90.955 204.668 90.195H206.933C206.703 91.095 206.248 91.81 205.568 92.34C204.888 92.87 204.038 93.135 203.018 93.135C202.218 93.135 201.508 92.96 200.888 92.61C200.268 92.25 199.783 91.75 199.433 91.11C199.083 90.46 198.908 89.705 198.908 88.845ZM207.932 88.845C207.932 87.985 208.107 87.235 208.457 86.595C208.807 85.945 209.292 85.445 209.912 85.095C210.532 84.735 211.242 84.555 212.042 84.555C213.072 84.555 213.922 84.815 214.592 85.335C215.272 85.845 215.727 86.565 215.957 87.495H213.692C213.572 87.135 213.367 86.855 213.077 86.655C212.797 86.445 212.447 86.34 212.027 86.34C211.427 86.34 210.952 86.56 210.602 87C210.252 87.43 210.077 88.045 210.077 88.845C210.077 89.635 210.252 90.25 210.602 90.69C210.952 91.12 211.427 91.335 212.027 91.335C212.877 91.335 213.432 90.955 213.692 90.195H215.957C215.727 91.095 215.272 91.81 214.592 92.34C213.912 92.87 213.062 93.135 212.042 93.135C211.242 93.135 210.532 92.96 209.912 92.61C209.292 92.25 208.807 91.75 208.457 91.11C208.107 90.46 207.932 89.705 207.932 88.845ZM225.22 88.665C225.22 88.965 225.2 89.235 225.16 89.475H219.085C219.135 90.075 219.345 90.545 219.715 90.885C220.085 91.225 220.54 91.395 221.08 91.395C221.86 91.395 222.415 91.06 222.745 90.39H225.01C224.77 91.19 224.31 91.85 223.63 92.37C222.95 92.88 222.115 93.135 221.125 93.135C220.325 93.135 219.605 92.96 218.965 92.61C218.335 92.25 217.84 91.745 217.48 91.095C217.13 90.445 216.955 89.695 216.955 88.845C216.955 87.985 217.13 87.23 217.48 86.58C217.83 85.93 218.32 85.43 218.95 85.08C219.58 84.73 220.305 84.555 221.125 84.555C221.915 84.555 222.62 84.725 223.24 85.065C223.87 85.405 224.355 85.89 224.695 86.52C225.045 87.14 225.22 87.855 225.22 88.665ZM223.045 88.065C223.035 87.525 222.84 87.095 222.46 86.775C222.08 86.445 221.615 86.28 221.065 86.28C220.545 86.28 220.105 86.44 219.745 86.76C219.395 87.07 219.18 87.505 219.1 88.065H223.045ZM229.933 93.135C229.253 93.135 228.643 93.015 228.103 92.775C227.563 92.525 227.133 92.19 226.813 91.77C226.503 91.35 226.333 90.885 226.303 90.375H228.418C228.458 90.695 228.613 90.96 228.883 91.17C229.163 91.38 229.508 91.485 229.918 91.485C230.318 91.485 230.628 91.405 230.848 91.245C231.078 91.085 231.193 90.88 231.193 90.63C231.193 90.36 231.053 90.16 230.773 90.03C230.503 89.89 230.068 89.74 229.468 89.58C228.848 89.43 228.338 89.275 227.938 89.115C227.548 88.955 227.208 88.71 226.918 88.38C226.638 88.05 226.498 87.605 226.498 87.045C226.498 86.585 226.628 86.165 226.888 85.785C227.158 85.405 227.538 85.105 228.028 84.885C228.528 84.665 229.113 84.555 229.783 84.555C230.773 84.555 231.563 84.805 232.153 85.305C232.743 85.795 233.068 86.46 233.128 87.3H231.118C231.088 86.97 230.948 86.71 230.698 86.52C230.458 86.32 230.133 86.22 229.723 86.22C229.343 86.22 229.048 86.29 228.838 86.43C228.638 86.57 228.538 86.765 228.538 87.015C228.538 87.295 228.678 87.51 228.958 87.66C229.238 87.8 229.673 87.945 230.263 88.095C230.863 88.245 231.358 88.4 231.748 88.56C232.138 88.72 232.473 88.97 232.753 89.31C233.043 89.64 233.193 90.08 233.203 90.63C233.203 91.11 233.068 91.54 232.798 91.92C232.538 92.3 232.158 92.6 231.658 92.82C231.168 93.03 230.593 93.135 229.933 93.135ZM238.107 93.135C237.427 93.135 236.817 93.015 236.277 92.775C235.737 92.525 235.307 92.19 234.987 91.77C234.677 91.35 234.507 90.885 234.477 90.375H236.592C236.632 90.695 236.787 90.96 237.057 91.17C237.337 91.38 237.682 91.485 238.092 91.485C238.492 91.485 238.802 91.405 239.022 91.245C239.252 91.085 239.367 90.88 239.367 90.63C239.367 90.36 239.227 90.16 238.947 90.03C238.677 89.89 238.242 89.74 237.642 89.58C237.022 89.43 236.512 89.275 236.112 89.115C235.722 88.955 235.382 88.71 235.092 88.38C234.812 88.05 234.672 87.605 234.672 87.045C234.672 86.585 234.802 86.165 235.062 85.785C235.332 85.405 235.712 85.105 236.202 84.885C236.702 84.665 237.287 84.555 237.957 84.555C238.947 84.555 239.737 84.805 240.327 85.305C240.917 85.795 241.242 86.46 241.302 87.3H239.292C239.262 86.97 239.122 86.71 238.872 86.52C238.632 86.32 238.307 86.22 237.897 86.22C237.517 86.22 237.222 86.29 237.012 86.43C236.812 86.57 236.712 86.765 236.712 87.015C236.712 87.295 236.852 87.51 237.132 87.66C237.412 87.8 237.847 87.945 238.437 88.095C239.037 88.245 239.532 88.4 239.922 88.56C240.312 88.72 240.647 88.97 240.927 89.31C241.217 89.64 241.367 90.08 241.377 90.63C241.377 91.11 241.242 91.54 240.972 91.92C240.712 92.3 240.332 92.6 239.832 92.82C239.342 93.03 238.767 93.135 238.107 93.135ZM249.12 86.415V90.435C249.12 90.715 249.185 90.92 249.315 91.05C249.455 91.17 249.685 91.23 250.005 91.23H250.98V93H249.66C247.89 93 247.005 92.14 247.005 90.42V86.415H246.015V84.69H247.005V82.635H249.12V84.69H250.98V86.415H249.12ZM257.17 84.57C257.8 84.57 258.36 84.71 258.85 84.99C259.34 85.26 259.72 85.665 259.99 86.205C260.27 86.735 260.41 87.375 260.41 88.125V93H258.31V88.41C258.31 87.75 258.145 87.245 257.815 86.895C257.485 86.535 257.035 86.355 256.465 86.355C255.885 86.355 255.425 86.535 255.085 86.895C254.755 87.245 254.59 87.75 254.59 88.41V93H252.49V81.9H254.59V85.725C254.86 85.365 255.22 85.085 255.67 84.885C256.12 84.675 256.62 84.57 257.17 84.57ZM270.132 88.665C270.132 88.965 270.112 89.235 270.072 89.475H263.997C264.047 90.075 264.257 90.545 264.627 90.885C264.997 91.225 265.452 91.395 265.992 91.395C266.772 91.395 267.327 91.06 267.657 90.39H269.922C269.682 91.19 269.222 91.85 268.542 92.37C267.862 92.88 267.027 93.135 266.037 93.135C265.237 93.135 264.517 92.96 263.877 92.61C263.247 92.25 262.752 91.745 262.392 91.095C262.042 90.445 261.867 89.695 261.867 88.845C261.867 87.985 262.042 87.23 262.392 86.58C262.742 85.93 263.232 85.43 263.862 85.08C264.492 84.73 265.217 84.555 266.037 84.555C266.827 84.555 267.532 84.725 268.152 85.065C268.782 85.405 269.267 85.89 269.607 86.52C269.957 87.14 270.132 87.855 270.132 88.665ZM267.957 88.065C267.947 87.525 267.752 87.095 267.372 86.775C266.992 86.445 266.527 86.28 265.977 86.28C265.457 86.28 265.017 86.44 264.657 86.76C264.307 87.07 264.092 87.505 264.012 88.065H267.957ZM101.355 107.57C102.375 107.57 103.195 107.885 103.815 108.515C104.445 109.135 104.76 110.005 104.76 111.125V116H102.66V111.41C102.66 110.76 102.495 110.265 102.165 109.925C101.835 109.575 101.385 109.4 100.815 109.4C100.245 109.4 99.79 109.575 99.45 109.925C99.12 110.265 98.955 110.76 98.955 111.41V116H96.855V111.41C96.855 110.76 96.69 110.265 96.36 109.925C96.03 109.575 95.58 109.4 95.01 109.4C94.43 109.4 93.97 109.575 93.63 109.925C93.3 110.265 93.135 110.76 93.135 111.41V116H91.035V107.69H93.135V108.695C93.405 108.345 93.75 108.07 94.17 107.87C94.6 107.67 95.07 107.57 95.58 107.57C96.23 107.57 96.81 107.71 97.32 107.99C97.83 108.26 98.225 108.65 98.505 109.16C98.775 108.68 99.165 108.295 99.675 108.005C100.195 107.715 100.755 107.57 101.355 107.57ZM106.213 111.815C106.213 110.975 106.378 110.23 106.708 109.58C107.048 108.93 107.503 108.43 108.073 108.08C108.653 107.73 109.298 107.555 110.008 107.555C110.628 107.555 111.168 107.68 111.628 107.93C112.098 108.18 112.473 108.495 112.753 108.875V107.69H114.868V116H112.753V114.785C112.483 115.175 112.108 115.5 111.628 115.76C111.158 116.01 110.613 116.135 109.993 116.135C109.293 116.135 108.653 115.955 108.073 115.595C107.503 115.235 107.048 114.73 106.708 114.08C106.378 113.42 106.213 112.665 106.213 111.815ZM112.753 111.845C112.753 111.335 112.653 110.9 112.453 110.54C112.253 110.17 111.983 109.89 111.643 109.7C111.303 109.5 110.938 109.4 110.548 109.4C110.158 109.4 109.798 109.495 109.468 109.685C109.138 109.875 108.868 110.155 108.658 110.525C108.458 110.885 108.358 111.315 108.358 111.815C108.358 112.315 108.458 112.755 108.658 113.135C108.868 113.505 109.138 113.79 109.468 113.99C109.808 114.19 110.168 114.29 110.548 114.29C110.938 114.29 111.303 114.195 111.643 114.005C111.983 113.805 112.253 113.525 112.453 113.165C112.653 112.795 112.753 112.355 112.753 111.845ZM117.984 106.7C117.614 106.7 117.304 106.585 117.054 106.355C116.814 106.115 116.694 105.82 116.694 105.47C116.694 105.12 116.814 104.83 117.054 104.6C117.304 104.36 117.614 104.24 117.984 104.24C118.354 104.24 118.659 104.36 118.899 104.6C119.149 104.83 119.274 105.12 119.274 105.47C119.274 105.82 119.149 106.115 118.899 106.355C118.659 106.585 118.354 106.7 117.984 106.7ZM119.019 107.69V116H116.919V107.69H119.019ZM125.699 107.57C126.689 107.57 127.489 107.885 128.099 108.515C128.709 109.135 129.014 110.005 129.014 111.125V116H126.914V111.41C126.914 110.75 126.749 110.245 126.419 109.895C126.089 109.535 125.639 109.355 125.069 109.355C124.489 109.355 124.029 109.535 123.689 109.895C123.359 110.245 123.194 110.75 123.194 111.41V116H121.094V107.69H123.194V108.725C123.474 108.365 123.829 108.085 124.259 107.885C124.699 107.675 125.179 107.57 125.699 107.57ZM144.905 107.57C145.925 107.57 146.745 107.885 147.365 108.515C147.995 109.135 148.31 110.005 148.31 111.125V116H146.21V111.41C146.21 110.76 146.045 110.265 145.715 109.925C145.385 109.575 144.935 109.4 144.365 109.4C143.795 109.4 143.34 109.575 143 109.925C142.67 110.265 142.505 110.76 142.505 111.41V116H140.405V111.41C140.405 110.76 140.24 110.265 139.91 109.925C139.58 109.575 139.13 109.4 138.56 109.4C137.98 109.4 137.52 109.575 137.18 109.925C136.85 110.265 136.685 110.76 136.685 111.41V116H134.585V107.69H136.685V108.695C136.955 108.345 137.3 108.07 137.72 107.87C138.15 107.67 138.62 107.57 139.13 107.57C139.78 107.57 140.36 107.71 140.87 107.99C141.38 108.26 141.775 108.65 142.055 109.16C142.325 108.68 142.715 108.295 143.225 108.005C143.745 107.715 144.305 107.57 144.905 107.57ZM158.028 111.665C158.028 111.965 158.008 112.235 157.968 112.475H151.893C151.943 113.075 152.153 113.545 152.523 113.885C152.893 114.225 153.348 114.395 153.888 114.395C154.668 114.395 155.223 114.06 155.553 113.39H157.818C157.578 114.19 157.118 114.85 156.438 115.37C155.758 115.88 154.923 116.135 153.933 116.135C153.133 116.135 152.413 115.96 151.773 115.61C151.143 115.25 150.648 114.745 150.288 114.095C149.938 113.445 149.763 112.695 149.763 111.845C149.763 110.985 149.938 110.23 150.288 109.58C150.638 108.93 151.128 108.43 151.758 108.08C152.388 107.73 153.113 107.555 153.933 107.555C154.723 107.555 155.428 107.725 156.048 108.065C156.678 108.405 157.163 108.89 157.503 109.52C157.853 110.14 158.028 110.855 158.028 111.665ZM155.853 111.065C155.843 110.525 155.648 110.095 155.268 109.775C154.888 109.445 154.423 109.28 153.873 109.28C153.353 109.28 152.913 109.44 152.553 109.76C152.203 110.07 151.988 110.505 151.908 111.065H155.853ZM164.165 107.57C165.155 107.57 165.955 107.885 166.565 108.515C167.175 109.135 167.48 110.005 167.48 111.125V116H165.38V111.41C165.38 110.75 165.215 110.245 164.885 109.895C164.555 109.535 164.105 109.355 163.535 109.355C162.955 109.355 162.495 109.535 162.155 109.895C161.825 110.245 161.66 110.75 161.66 111.41V116H159.56V107.69H161.66V108.725C161.94 108.365 162.295 108.085 162.725 107.885C163.165 107.675 163.645 107.57 164.165 107.57ZM177.322 107.69V116H175.207V114.95C174.937 115.31 174.582 115.595 174.142 115.805C173.712 116.005 173.242 116.105 172.732 116.105C172.082 116.105 171.507 115.97 171.007 115.7C170.507 115.42 170.112 115.015 169.822 114.485C169.542 113.945 169.402 113.305 169.402 112.565V107.69H171.502V112.265C171.502 112.925 171.667 113.435 171.997 113.795C172.327 114.145 172.777 114.32 173.347 114.32C173.927 114.32 174.382 114.145 174.712 113.795C175.042 113.435 175.207 112.925 175.207 112.265V107.69H177.322Z" fill="white" fill-opacity="0.75"/>
</svg>
