<svg width="480" height="480" viewBox="0 0 480 480" fill="none" xmlns="http://www.w3.org/2000/svg">
<g opacity="0.6" clip-path="url(#clip0)">
<circle cx="342" cy="168" r="86" fill="#4F4F4F" fill-opacity="0.6"/>
<circle cx="17" cy="132" r="50" fill="#4F4F4F" fill-opacity="0.25"/>
<circle cx="256" cy="358" r="92" fill="#4F4F4F" fill-opacity="0.45"/>
<g filter="url(#filter0_d)">
<rect x="23" y="131.364" width="218.182" height="54.5455" rx="5" fill="#D8D8D8"/>
</g>
<path d="M77.625 168H75.35L66.2 154.125V168H63.925V150.55H66.2L75.35 164.4V150.55H77.625V168ZM94.0031 160.625C94.0031 161.058 93.9781 161.517 93.9281 162H82.9781C83.0615 163.35 83.5198 164.408 84.3531 165.175C85.2031 165.925 86.2281 166.3 87.4281 166.3C88.4115 166.3 89.2281 166.075 89.8781 165.625C90.5448 165.158 91.0115 164.542 91.2781 163.775H93.7281C93.3615 165.092 92.6281 166.167 91.5281 167C90.4281 167.817 89.0615 168.225 87.4281 168.225C86.1281 168.225 84.9615 167.933 83.9281 167.35C82.9115 166.767 82.1115 165.942 81.5281 164.875C80.9448 163.792 80.6531 162.542 80.6531 161.125C80.6531 159.708 80.9365 158.467 81.5031 157.4C82.0698 156.333 82.8615 155.517 83.8781 154.95C84.9115 154.367 86.0948 154.075 87.4281 154.075C88.7281 154.075 89.8781 154.358 90.8781 154.925C91.8781 155.492 92.6448 156.275 93.1781 157.275C93.7281 158.258 94.0031 159.375 94.0031 160.625ZM91.6531 160.15C91.6531 159.283 91.4615 158.542 91.0781 157.925C90.6948 157.292 90.1698 156.817 89.5031 156.5C88.8531 156.167 88.1281 156 87.3281 156C86.1781 156 85.1948 156.367 84.3781 157.1C83.5781 157.833 83.1198 158.85 83.0031 160.15H91.6531ZM115.256 154.3L110.981 168H108.631L105.331 157.125L102.031 168H99.6811L95.3811 154.3H97.7061L100.856 165.8L104.256 154.3H106.581L109.906 165.825L113.006 154.3H115.256ZM134.029 150.575V152.425H126.454V158.3H132.604V160.15H126.454V168H124.179V150.575H134.029ZM142.752 168.225C141.468 168.225 140.302 167.933 139.252 167.35C138.218 166.767 137.402 165.942 136.802 164.875C136.218 163.792 135.927 162.542 135.927 161.125C135.927 159.725 136.227 158.492 136.827 157.425C137.443 156.342 138.277 155.517 139.327 154.95C140.377 154.367 141.552 154.075 142.852 154.075C144.152 154.075 145.327 154.367 146.377 154.95C147.427 155.517 148.252 156.333 148.852 157.4C149.468 158.467 149.777 159.708 149.777 161.125C149.777 162.542 149.46 163.792 148.827 164.875C148.21 165.942 147.368 166.767 146.302 167.35C145.235 167.933 144.052 168.225 142.752 168.225ZM142.752 166.225C143.568 166.225 144.335 166.033 145.052 165.65C145.768 165.267 146.343 164.692 146.777 163.925C147.227 163.158 147.452 162.225 147.452 161.125C147.452 160.025 147.235 159.092 146.802 158.325C146.368 157.558 145.802 156.992 145.102 156.625C144.402 156.242 143.643 156.05 142.827 156.05C141.993 156.05 141.227 156.242 140.527 156.625C139.843 156.992 139.293 157.558 138.877 158.325C138.46 159.092 138.252 160.025 138.252 161.125C138.252 162.242 138.452 163.183 138.852 163.95C139.268 164.717 139.818 165.292 140.502 165.675C141.185 166.042 141.935 166.225 142.752 166.225ZM155.043 149.5V168H152.768V149.5H155.043ZM158.07 161.1C158.07 159.7 158.353 158.475 158.92 157.425C159.487 156.358 160.262 155.533 161.245 154.95C162.245 154.367 163.362 154.075 164.595 154.075C165.662 154.075 166.653 154.325 167.57 154.825C168.487 155.308 169.187 155.95 169.67 156.75V149.5H171.97V168H169.67V165.425C169.22 166.242 168.553 166.917 167.67 167.45C166.787 167.967 165.753 168.225 164.57 168.225C163.353 168.225 162.245 167.925 161.245 167.325C160.262 166.725 159.487 165.883 158.92 164.8C158.353 163.717 158.07 162.483 158.07 161.1ZM169.67 161.125C169.67 160.092 169.462 159.192 169.045 158.425C168.628 157.658 168.062 157.075 167.345 156.675C166.645 156.258 165.87 156.05 165.02 156.05C164.17 156.05 163.395 156.25 162.695 156.65C161.995 157.05 161.437 157.633 161.02 158.4C160.603 159.167 160.395 160.067 160.395 161.1C160.395 162.15 160.603 163.067 161.02 163.85C161.437 164.617 161.995 165.208 162.695 165.625C163.395 166.025 164.17 166.225 165.02 166.225C165.87 166.225 166.645 166.025 167.345 165.625C168.062 165.208 168.628 164.617 169.045 163.85C169.462 163.067 169.67 162.158 169.67 161.125ZM188.315 160.625C188.315 161.058 188.29 161.517 188.24 162H177.29C177.373 163.35 177.831 164.408 178.665 165.175C179.515 165.925 180.54 166.3 181.74 166.3C182.723 166.3 183.54 166.075 184.19 165.625C184.856 165.158 185.323 164.542 185.59 163.775H188.04C187.673 165.092 186.94 166.167 185.84 167C184.74 167.817 183.373 168.225 181.74 168.225C180.44 168.225 179.273 167.933 178.24 167.35C177.223 166.767 176.423 165.942 175.84 164.875C175.256 163.792 174.965 162.542 174.965 161.125C174.965 159.708 175.248 158.467 175.815 157.4C176.381 156.333 177.173 155.517 178.19 154.95C179.223 154.367 180.406 154.075 181.74 154.075C183.04 154.075 184.19 154.358 185.19 154.925C186.19 155.492 186.956 156.275 187.49 157.275C188.04 158.258 188.315 159.375 188.315 160.625ZM185.965 160.15C185.965 159.283 185.773 158.542 185.39 157.925C185.006 157.292 184.481 156.817 183.815 156.5C183.165 156.167 182.44 156 181.64 156C180.49 156 179.506 156.367 178.69 157.1C177.89 157.833 177.431 158.85 177.315 160.15H185.965ZM193.593 156.525C193.993 155.742 194.559 155.133 195.293 154.7C196.043 154.267 196.951 154.05 198.018 154.05V156.4H197.418C194.868 156.4 193.593 157.783 193.593 160.55V168H191.318V154.3H193.593V156.525Z" fill="#4F4F4F"/>
<path d="M91.8465 41.575V43.425H87.0965V59H84.8215V43.425H80.0465V41.575H91.8465ZM101.447 45.05C102.48 45.05 103.414 45.275 104.247 45.725C105.08 46.1583 105.73 46.8167 106.197 47.7C106.68 48.5833 106.922 49.6583 106.922 50.925V59H104.672V51.25C104.672 49.8833 104.33 48.8417 103.647 48.125C102.964 47.3917 102.03 47.025 100.847 47.025C99.6469 47.025 98.6886 47.4 97.9719 48.15C97.2719 48.9 96.9219 49.9917 96.9219 51.425V59H94.6469V40.5H96.9219V47.25C97.3719 46.55 97.9886 46.0083 98.7719 45.625C99.5719 45.2417 100.464 45.05 101.447 45.05ZM123.138 51.625C123.138 52.0583 123.113 52.5167 123.063 53H112.113C112.196 54.35 112.655 55.4083 113.488 56.175C114.338 56.925 115.363 57.3 116.563 57.3C117.546 57.3 118.363 57.075 119.013 56.625C119.68 56.1583 120.146 55.5417 120.413 54.775H122.863C122.496 56.0917 121.763 57.1667 120.663 58C119.563 58.8167 118.196 59.225 116.563 59.225C115.263 59.225 114.096 58.9333 113.063 58.35C112.046 57.7667 111.246 56.9417 110.663 55.875C110.08 54.7917 109.788 53.5417 109.788 52.125C109.788 50.7083 110.071 49.4667 110.638 48.4C111.205 47.3333 111.996 46.5167 113.013 45.95C114.046 45.3667 115.23 45.075 116.563 45.075C117.863 45.075 119.013 45.3583 120.013 45.925C121.013 46.4917 121.78 47.275 122.313 48.275C122.863 49.2583 123.138 50.375 123.138 51.625ZM120.788 51.15C120.788 50.2833 120.596 49.5417 120.213 48.925C119.83 48.2917 119.305 47.8167 118.638 47.5C117.988 47.1667 117.263 47 116.463 47C115.313 47 114.33 47.3667 113.513 48.1C112.713 48.8333 112.255 49.85 112.138 51.15H120.788ZM128.416 47.525C128.816 46.7417 129.383 46.1333 130.116 45.7C130.866 45.2667 131.774 45.05 132.841 45.05V47.4H132.241C129.691 47.4 128.416 48.7833 128.416 51.55V59H126.141V45.3H128.416V47.525ZM147.967 51.625C147.967 52.0583 147.942 52.5167 147.892 53H136.942C137.026 54.35 137.484 55.4083 138.317 56.175C139.167 56.925 140.192 57.3 141.392 57.3C142.376 57.3 143.192 57.075 143.842 56.625C144.509 56.1583 144.976 55.5417 145.242 54.775H147.692C147.326 56.0917 146.592 57.1667 145.492 58C144.392 58.8167 143.026 59.225 141.392 59.225C140.092 59.225 138.926 58.9333 137.892 58.35C136.876 57.7667 136.076 56.9417 135.492 55.875C134.909 54.7917 134.617 53.5417 134.617 52.125C134.617 50.7083 134.901 49.4667 135.467 48.4C136.034 47.3333 136.826 46.5167 137.842 45.95C138.876 45.3667 140.059 45.075 141.392 45.075C142.692 45.075 143.842 45.3583 144.842 45.925C145.842 46.4917 146.609 47.275 147.142 48.275C147.692 49.2583 147.967 50.375 147.967 51.625ZM145.617 51.15C145.617 50.2833 145.426 49.5417 145.042 48.925C144.659 48.2917 144.134 47.8167 143.467 47.5C142.817 47.1667 142.092 47 141.292 47C140.142 47 139.159 47.3667 138.342 48.1C137.542 48.8333 137.084 49.85 136.967 51.15H145.617ZM156.785 52.1C156.785 50.7 157.069 49.475 157.635 48.425C158.202 47.3583 158.977 46.5333 159.96 45.95C160.96 45.3667 162.069 45.075 163.285 45.075C164.485 45.075 165.527 45.3333 166.41 45.85C167.294 46.3667 167.952 47.0167 168.385 47.8V45.3H170.685V59H168.385V56.45C167.935 57.25 167.26 57.9167 166.36 58.45C165.477 58.9667 164.444 59.225 163.26 59.225C162.044 59.225 160.944 58.925 159.96 58.325C158.977 57.725 158.202 56.8833 157.635 55.8C157.069 54.7167 156.785 53.4833 156.785 52.1ZM168.385 52.125C168.385 51.0917 168.177 50.1917 167.76 49.425C167.344 48.6583 166.777 48.075 166.06 47.675C165.36 47.2583 164.585 47.05 163.735 47.05C162.885 47.05 162.11 47.25 161.41 47.65C160.71 48.05 160.152 48.6333 159.735 49.4C159.319 50.1667 159.11 51.0667 159.11 52.1C159.11 53.15 159.319 54.0667 159.735 54.85C160.152 55.6167 160.71 56.2083 161.41 56.625C162.11 57.025 162.885 57.225 163.735 57.225C164.585 57.225 165.36 57.025 166.06 56.625C166.777 56.2083 167.344 55.6167 167.76 54.85C168.177 54.0667 168.385 53.1583 168.385 52.125ZM176.805 47.525C177.205 46.7417 177.771 46.1333 178.505 45.7C179.255 45.2667 180.163 45.05 181.23 45.05V47.4H180.63C178.08 47.4 176.805 48.7833 176.805 51.55V59H174.53V45.3H176.805V47.525ZM196.356 51.625C196.356 52.0583 196.331 52.5167 196.281 53H185.331C185.414 54.35 185.873 55.4083 186.706 56.175C187.556 56.925 188.581 57.3 189.781 57.3C190.764 57.3 191.581 57.075 192.231 56.625C192.898 56.1583 193.364 55.5417 193.631 54.775H196.081C195.714 56.0917 194.981 57.1667 193.881 58C192.781 58.8167 191.414 59.225 189.781 59.225C188.481 59.225 187.314 58.9333 186.281 58.35C185.264 57.7667 184.464 56.9417 183.881 55.875C183.298 54.7917 183.006 53.5417 183.006 52.125C183.006 50.7083 183.289 49.4667 183.856 48.4C184.423 47.3333 185.214 46.5167 186.231 45.95C187.264 45.3667 188.448 45.075 189.781 45.075C191.081 45.075 192.231 45.3583 193.231 45.925C194.231 46.4917 194.998 47.275 195.531 48.275C196.081 49.2583 196.356 50.375 196.356 51.625ZM194.006 51.15C194.006 50.2833 193.814 49.5417 193.431 48.925C193.048 48.2917 192.523 47.8167 191.856 47.5C191.206 47.1667 190.481 47 189.681 47C188.531 47 187.548 47.3667 186.731 48.1C185.931 48.8333 185.473 49.85 185.356 51.15H194.006ZM212.699 45.05C214.366 45.05 215.716 45.5583 216.749 46.575C217.782 47.575 218.299 49.025 218.299 50.925V59H216.049V51.25C216.049 49.8833 215.707 48.8417 215.024 48.125C214.341 47.3917 213.407 47.025 212.224 47.025C211.024 47.025 210.066 47.4 209.349 48.15C208.649 48.9 208.299 49.9917 208.299 51.425V59H206.024V45.3H208.299V47.25C208.749 46.55 209.357 46.0083 210.124 45.625C210.907 45.2417 211.766 45.05 212.699 45.05ZM227.99 59.225C226.707 59.225 225.54 58.9333 224.49 58.35C223.457 57.7667 222.64 56.9417 222.04 55.875C221.457 54.7917 221.165 53.5417 221.165 52.125C221.165 50.725 221.465 49.4917 222.065 48.425C222.682 47.3417 223.515 46.5167 224.565 45.95C225.615 45.3667 226.79 45.075 228.09 45.075C229.39 45.075 230.565 45.3667 231.615 45.95C232.665 46.5167 233.49 47.3333 234.09 48.4C234.707 49.4667 235.015 50.7083 235.015 52.125C235.015 53.5417 234.698 54.7917 234.065 55.875C233.448 56.9417 232.607 57.7667 231.54 58.35C230.473 58.9333 229.29 59.225 227.99 59.225ZM227.99 57.225C228.807 57.225 229.573 57.0333 230.29 56.65C231.007 56.2667 231.582 55.6917 232.015 54.925C232.465 54.1583 232.69 53.225 232.69 52.125C232.69 51.025 232.473 50.0917 232.04 49.325C231.607 48.5583 231.04 47.9917 230.34 47.625C229.64 47.2417 228.882 47.05 228.065 47.05C227.232 47.05 226.465 47.2417 225.765 47.625C225.082 47.9917 224.532 48.5583 224.115 49.325C223.698 50.0917 223.49 51.025 223.49 52.125C223.49 53.2417 223.69 54.1833 224.09 54.95C224.507 55.7167 225.057 56.2917 225.74 56.675C226.423 57.0417 227.173 57.225 227.99 57.225ZM250.246 47.175H247.371V59H245.096V47.175H243.321V45.3H245.096V44.325C245.096 42.7917 245.488 41.675 246.271 40.975C247.071 40.2583 248.346 39.9 250.096 39.9V41.8C249.096 41.8 248.388 42 247.971 42.4C247.571 42.7833 247.371 43.425 247.371 44.325V45.3H250.246V47.175ZM258.874 59.225C257.591 59.225 256.424 58.9333 255.374 58.35C254.341 57.7667 253.524 56.9417 252.924 55.875C252.341 54.7917 252.049 53.5417 252.049 52.125C252.049 50.725 252.349 49.4917 252.949 48.425C253.566 47.3417 254.399 46.5167 255.449 45.95C256.499 45.3667 257.674 45.075 258.974 45.075C260.274 45.075 261.449 45.3667 262.499 45.95C263.549 46.5167 264.374 47.3333 264.974 48.4C265.591 49.4667 265.899 50.7083 265.899 52.125C265.899 53.5417 265.582 54.7917 264.949 55.875C264.332 56.9417 263.491 57.7667 262.424 58.35C261.357 58.9333 260.174 59.225 258.874 59.225ZM258.874 57.225C259.691 57.225 260.457 57.0333 261.174 56.65C261.891 56.2667 262.466 55.6917 262.899 54.925C263.349 54.1583 263.574 53.225 263.574 52.125C263.574 51.025 263.357 50.0917 262.924 49.325C262.491 48.5583 261.924 47.9917 261.224 47.625C260.524 47.2417 259.766 47.05 258.949 47.05C258.116 47.05 257.349 47.2417 256.649 47.625C255.966 47.9917 255.416 48.5583 254.999 49.325C254.582 50.0917 254.374 51.025 254.374 52.125C254.374 53.2417 254.574 54.1833 254.974 54.95C255.391 55.7167 255.941 56.2917 256.624 56.675C257.307 57.0417 258.057 57.225 258.874 57.225ZM271.165 40.5V59H268.89V40.5H271.165ZM274.192 52.1C274.192 50.7 274.476 49.475 275.042 48.425C275.609 47.3583 276.384 46.5333 277.367 45.95C278.367 45.3667 279.484 45.075 280.717 45.075C281.784 45.075 282.776 45.325 283.692 45.825C284.609 46.3083 285.309 46.95 285.792 47.75V40.5H288.092V59H285.792V56.425C285.342 57.2417 284.676 57.9167 283.792 58.45C282.909 58.9667 281.876 59.225 280.692 59.225C279.476 59.225 278.367 58.925 277.367 58.325C276.384 57.725 275.609 56.8833 275.042 55.8C274.476 54.7167 274.192 53.4833 274.192 52.1ZM285.792 52.125C285.792 51.0917 285.584 50.1917 285.167 49.425C284.751 48.6583 284.184 48.075 283.467 47.675C282.767 47.2583 281.992 47.05 281.142 47.05C280.292 47.05 279.517 47.25 278.817 47.65C278.117 48.05 277.559 48.6333 277.142 49.4C276.726 50.1667 276.517 51.0667 276.517 52.1C276.517 53.15 276.726 54.0667 277.142 54.85C277.559 55.6167 278.117 56.2083 278.817 56.625C279.517 57.025 280.292 57.225 281.142 57.225C281.992 57.225 282.767 57.025 283.467 56.625C284.184 56.2083 284.751 55.6167 285.167 54.85C285.584 54.0667 285.792 53.1583 285.792 52.125ZM304.437 51.625C304.437 52.0583 304.412 52.5167 304.362 53H293.412C293.495 54.35 293.954 55.4083 294.787 56.175C295.637 56.925 296.662 57.3 297.862 57.3C298.845 57.3 299.662 57.075 300.312 56.625C300.979 56.1583 301.445 55.5417 301.712 54.775H304.162C303.795 56.0917 303.062 57.1667 301.962 58C300.862 58.8167 299.495 59.225 297.862 59.225C296.562 59.225 295.395 58.9333 294.362 58.35C293.345 57.7667 292.545 56.9417 291.962 55.875C291.379 54.7917 291.087 53.5417 291.087 52.125C291.087 50.7083 291.37 49.4667 291.937 48.4C292.504 47.3333 293.295 46.5167 294.312 45.95C295.345 45.3667 296.529 45.075 297.862 45.075C299.162 45.075 300.312 45.3583 301.312 45.925C302.312 46.4917 303.079 47.275 303.612 48.275C304.162 49.2583 304.437 50.375 304.437 51.625ZM302.087 51.15C302.087 50.2833 301.895 49.5417 301.512 48.925C301.129 48.2917 300.604 47.8167 299.937 47.5C299.287 47.1667 298.562 47 297.762 47C296.612 47 295.629 47.3667 294.812 48.1C294.012 48.8333 293.554 49.85 293.437 51.15H302.087ZM309.715 47.525C310.115 46.7417 310.682 46.1333 311.415 45.7C312.165 45.2667 313.073 45.05 314.14 45.05V47.4H313.54C310.99 47.4 309.715 48.7833 309.715 51.55V59H307.44V45.3H309.715V47.525ZM321.616 59.225C320.566 59.225 319.624 59.05 318.791 58.7C317.958 58.3333 317.299 57.8333 316.816 57.2C316.333 56.55 316.066 55.8083 316.016 54.975H318.366C318.433 55.6583 318.749 56.2167 319.316 56.65C319.899 57.0833 320.658 57.3 321.591 57.3C322.458 57.3 323.141 57.1083 323.641 56.725C324.141 56.3417 324.391 55.8583 324.391 55.275C324.391 54.675 324.124 54.2333 323.591 53.95C323.058 53.65 322.233 53.3583 321.116 53.075C320.099 52.8083 319.266 52.5417 318.616 52.275C317.983 51.9917 317.433 51.5833 316.966 51.05C316.516 50.5 316.291 49.7833 316.291 48.9C316.291 48.2 316.499 47.5583 316.916 46.975C317.333 46.3917 317.924 45.9333 318.691 45.6C319.458 45.25 320.333 45.075 321.316 45.075C322.833 45.075 324.058 45.4583 324.991 46.225C325.924 46.9917 326.424 48.0417 326.491 49.375H324.216C324.166 48.6583 323.874 48.0833 323.341 47.65C322.824 47.2167 322.124 47 321.241 47C320.424 47 319.774 47.175 319.291 47.525C318.808 47.875 318.566 48.3333 318.566 48.9C318.566 49.35 318.708 49.725 318.991 50.025C319.291 50.3083 319.658 50.5417 320.091 50.725C320.541 50.8917 321.158 51.0833 321.941 51.3C322.924 51.5667 323.724 51.8333 324.341 52.1C324.958 52.35 325.483 52.7333 325.916 53.25C326.366 53.7667 326.599 54.4417 326.616 55.275C326.616 56.025 326.408 56.7 325.991 57.3C325.574 57.9 324.983 58.375 324.216 58.725C323.466 59.0583 322.599 59.225 321.616 59.225ZM332.778 41.575L332.503 54.075H330.603L330.328 41.575H332.778ZM331.653 59.15C331.219 59.15 330.853 59 330.553 58.7C330.253 58.4 330.103 58.0333 330.103 57.6C330.103 57.1667 330.253 56.8 330.553 56.5C330.853 56.2 331.219 56.05 331.653 56.05C332.069 56.05 332.419 56.2 332.703 56.5C333.003 56.8 333.153 57.1667 333.153 57.6C333.153 58.0333 333.003 58.4 332.703 58.7C332.419 59 332.069 59.15 331.653 59.15Z" fill="#4F4F4F"/>
<path d="M94 188L87.2768 197.388L98.7685 198.516L94 188ZM189.55 361.803C139.732 361.803 113.203 351.252 100.359 325.779C93.8968 312.962 90.8373 296.261 90.1513 274.977C89.4654 253.701 91.1526 227.936 94.1171 197.039L92.1262 196.848C89.1605 227.759 87.4621 253.631 88.1523 275.042C88.8423 296.446 91.9203 313.484 98.5735 326.68C111.962 353.233 139.577 363.803 189.55 363.803L189.55 361.803Z" fill="#4F4F4F"/>
<path d="M185.646 331.73C185.646 330.03 186.038 328.505 186.821 327.155C187.621 325.805 188.696 324.755 190.046 324.005C191.413 323.238 192.904 322.855 194.521 322.855C196.371 322.855 198.013 323.313 199.446 324.23C200.896 325.13 201.946 326.413 202.596 328.08H199.171C198.721 327.163 198.096 326.48 197.296 326.03C196.496 325.58 195.571 325.355 194.521 325.355C193.371 325.355 192.346 325.613 191.446 326.13C190.546 326.646 189.838 327.388 189.321 328.355C188.821 329.321 188.571 330.446 188.571 331.73C188.571 333.013 188.821 334.138 189.321 335.105C189.838 336.071 190.546 336.821 191.446 337.355C192.346 337.871 193.371 338.13 194.521 338.13C195.571 338.13 196.496 337.905 197.296 337.455C198.096 337.005 198.721 336.321 199.171 335.405H202.596C201.946 337.071 200.896 338.355 199.446 339.255C198.013 340.155 196.371 340.605 194.521 340.605C192.888 340.605 191.396 340.23 190.046 339.48C188.696 338.713 187.621 337.655 186.821 336.305C186.038 334.955 185.646 333.43 185.646 331.73ZM208.782 321.955V340.455H205.932V321.955H208.782ZM213.974 324.855C213.457 324.855 213.024 324.68 212.674 324.33C212.324 323.98 212.149 323.546 212.149 323.03C212.149 322.513 212.324 322.08 212.674 321.73C213.024 321.38 213.457 321.205 213.974 321.205C214.474 321.205 214.899 321.38 215.249 321.73C215.599 322.08 215.774 322.513 215.774 323.03C215.774 323.546 215.599 323.98 215.249 324.33C214.899 324.68 214.474 324.855 213.974 324.855ZM215.374 326.68V340.455H212.524V326.68H215.374ZM218.166 333.555C218.166 332.138 218.449 330.896 219.016 329.83C219.599 328.746 220.399 327.913 221.416 327.33C222.432 326.746 223.599 326.455 224.916 326.455C226.582 326.455 227.957 326.855 229.041 327.655C230.141 328.438 230.882 329.563 231.266 331.03H228.191C227.941 330.346 227.541 329.813 226.991 329.43C226.441 329.046 225.749 328.855 224.916 328.855C223.749 328.855 222.816 329.271 222.116 330.105C221.432 330.921 221.091 332.071 221.091 333.555C221.091 335.038 221.432 336.196 222.116 337.03C222.816 337.863 223.749 338.28 224.916 338.28C226.566 338.28 227.657 337.555 228.191 336.105H231.266C230.866 337.505 230.116 338.621 229.016 339.455C227.916 340.271 226.549 340.68 224.916 340.68C223.599 340.68 222.432 340.388 221.416 339.805C220.399 339.205 219.599 338.371 219.016 337.305C218.449 336.221 218.166 334.971 218.166 333.555ZM239.556 333.58L245.906 340.455H242.056L236.956 334.53V340.455H234.106V321.955H236.956V332.705L241.956 326.68H245.906L239.556 333.58ZM260.418 340.68C259.118 340.68 257.943 340.388 256.893 339.805C255.843 339.205 255.018 338.371 254.418 337.305C253.818 336.221 253.518 334.971 253.518 333.555C253.518 332.155 253.826 330.913 254.443 329.83C255.059 328.746 255.901 327.913 256.968 327.33C258.034 326.746 259.226 326.455 260.543 326.455C261.859 326.455 263.051 326.746 264.118 327.33C265.184 327.913 266.026 328.746 266.643 329.83C267.259 330.913 267.568 332.155 267.568 333.555C267.568 334.955 267.251 336.196 266.618 337.28C265.984 338.363 265.118 339.205 264.018 339.805C262.934 340.388 261.734 340.68 260.418 340.68ZM260.418 338.205C261.151 338.205 261.834 338.03 262.468 337.68C263.118 337.33 263.643 336.805 264.043 336.105C264.443 335.405 264.643 334.555 264.643 333.555C264.643 332.555 264.451 331.713 264.068 331.03C263.684 330.33 263.176 329.805 262.543 329.455C261.909 329.105 261.226 328.93 260.493 328.93C259.759 328.93 259.076 329.105 258.443 329.455C257.826 329.805 257.334 330.33 256.968 331.03C256.601 331.713 256.418 332.555 256.418 333.555C256.418 335.038 256.793 336.188 257.543 337.005C258.309 337.805 259.268 338.205 260.418 338.205ZM277.335 326.455C278.418 326.455 279.385 326.68 280.235 327.13C281.102 327.58 281.777 328.246 282.26 329.13C282.743 330.013 282.985 331.08 282.985 332.33V340.455H280.16V332.755C280.16 331.521 279.852 330.58 279.235 329.93C278.618 329.263 277.777 328.93 276.71 328.93C275.643 328.93 274.793 329.263 274.16 329.93C273.543 330.58 273.235 331.521 273.235 332.755V340.455H270.385V326.68H273.235V328.255C273.702 327.688 274.293 327.246 275.01 326.93C275.743 326.613 276.518 326.455 277.335 326.455ZM296.44 329.005V336.63C296.44 337.146 296.556 337.521 296.79 337.755C297.04 337.971 297.456 338.08 298.04 338.08H299.79V340.455H297.54C296.256 340.455 295.273 340.155 294.59 339.555C293.906 338.955 293.565 337.98 293.565 336.63V329.005H291.94V326.68H293.565V323.255H296.44V326.68H299.79V329.005H296.44ZM309.541 326.455C310.591 326.455 311.525 326.68 312.341 327.13C313.175 327.58 313.825 328.246 314.291 329.13C314.775 330.013 315.016 331.08 315.016 332.33V340.455H312.191V332.755C312.191 331.521 311.883 330.58 311.266 329.93C310.65 329.263 309.808 328.93 308.741 328.93C307.675 328.93 306.825 329.263 306.191 329.93C305.575 330.58 305.266 331.521 305.266 332.755V340.455H302.416V321.955H305.266V328.28C305.75 327.696 306.358 327.246 307.091 326.93C307.841 326.613 308.658 326.455 309.541 326.455ZM320.102 324.855C319.585 324.855 319.152 324.68 318.802 324.33C318.452 323.98 318.277 323.546 318.277 323.03C318.277 322.513 318.452 322.08 318.802 321.73C319.152 321.38 319.585 321.205 320.102 321.205C320.602 321.205 321.027 321.38 321.377 321.73C321.727 322.08 321.902 322.513 321.902 323.03C321.902 323.546 321.727 323.98 321.377 324.33C321.027 324.68 320.602 324.855 320.102 324.855ZM321.502 326.68V340.455H318.652V326.68H321.502ZM330.243 340.68C329.16 340.68 328.185 340.488 327.318 340.105C326.468 339.705 325.793 339.171 325.293 338.505C324.793 337.821 324.527 337.063 324.493 336.23H327.443C327.493 336.813 327.768 337.305 328.268 337.705C328.785 338.088 329.427 338.28 330.193 338.28C330.993 338.28 331.61 338.13 332.043 337.83C332.493 337.513 332.718 337.113 332.718 336.63C332.718 336.113 332.468 335.73 331.968 335.48C331.485 335.23 330.71 334.955 329.643 334.655C328.61 334.371 327.768 334.096 327.118 333.83C326.468 333.563 325.902 333.155 325.418 332.605C324.952 332.055 324.718 331.33 324.718 330.43C324.718 329.696 324.935 329.03 325.368 328.43C325.802 327.813 326.418 327.33 327.218 326.98C328.035 326.63 328.968 326.455 330.018 326.455C331.585 326.455 332.843 326.855 333.793 327.655C334.76 328.438 335.277 329.513 335.343 330.88H332.493C332.443 330.263 332.193 329.771 331.743 329.405C331.293 329.038 330.685 328.855 329.918 328.855C329.168 328.855 328.593 328.996 328.193 329.28C327.793 329.563 327.593 329.938 327.593 330.405C327.593 330.771 327.727 331.08 327.993 331.33C328.26 331.58 328.585 331.78 328.968 331.93C329.352 332.063 329.918 332.238 330.668 332.455C331.668 332.721 332.485 332.996 333.118 333.28C333.768 333.546 334.327 333.946 334.793 334.48C335.26 335.013 335.502 335.721 335.518 336.605C335.518 337.388 335.302 338.088 334.868 338.705C334.435 339.321 333.818 339.805 333.018 340.155C332.235 340.505 331.31 340.68 330.243 340.68ZM347.942 328.73C348.425 328.063 349.084 327.521 349.917 327.105C350.767 326.671 351.709 326.455 352.742 326.455C353.959 326.455 355.059 326.746 356.042 327.33C357.025 327.913 357.8 328.746 358.367 329.83C358.934 330.896 359.217 332.121 359.217 333.505C359.217 334.888 358.934 336.13 358.367 337.23C357.8 338.313 357.017 339.163 356.017 339.78C355.034 340.38 353.942 340.68 352.742 340.68C351.675 340.68 350.725 340.471 349.892 340.055C349.075 339.638 348.425 339.105 347.942 338.455V340.455H345.092V321.955H347.942V328.73ZM356.317 333.505C356.317 332.555 356.117 331.738 355.717 331.055C355.334 330.355 354.817 329.83 354.167 329.48C353.534 329.113 352.85 328.93 352.117 328.93C351.4 328.93 350.717 329.113 350.067 329.48C349.434 329.846 348.917 330.38 348.517 331.08C348.134 331.78 347.942 332.605 347.942 333.555C347.942 334.505 348.134 335.338 348.517 336.055C348.917 336.755 349.434 337.288 350.067 337.655C350.717 338.021 351.4 338.205 352.117 338.205C352.85 338.205 353.534 338.021 354.167 337.655C354.817 337.271 355.334 336.721 355.717 336.005C356.117 335.288 356.317 334.455 356.317 333.505ZM374.51 326.68V340.455H371.66V338.83C371.21 339.396 370.619 339.846 369.885 340.18C369.169 340.496 368.402 340.655 367.585 340.655C366.502 340.655 365.527 340.43 364.66 339.98C363.81 339.53 363.135 338.863 362.635 337.98C362.152 337.096 361.91 336.03 361.91 334.78V326.68H364.735V334.355C364.735 335.588 365.044 336.538 365.66 337.205C366.277 337.855 367.119 338.18 368.185 338.18C369.252 338.18 370.094 337.855 370.71 337.205C371.344 336.538 371.66 335.588 371.66 334.355V326.68H374.51ZM381.596 329.005V336.63C381.596 337.146 381.712 337.521 381.946 337.755C382.196 337.971 382.612 338.08 383.196 338.08H384.946V340.455H382.696C381.412 340.455 380.429 340.155 379.746 339.555C379.062 338.955 378.721 337.98 378.721 336.63V329.005H377.096V326.68H378.721V323.255H381.596V326.68H384.946V329.005H381.596ZM390.898 329.005V336.63C390.898 337.146 391.014 337.521 391.248 337.755C391.498 337.971 391.914 338.08 392.498 338.08H394.248V340.455H391.998C390.714 340.455 389.731 340.155 389.048 339.555C388.364 338.955 388.023 337.98 388.023 336.63V329.005H386.398V326.68H388.023V323.255H390.898V326.68H394.248V329.005H390.898ZM402.849 340.68C401.549 340.68 400.374 340.388 399.324 339.805C398.274 339.205 397.449 338.371 396.849 337.305C396.249 336.221 395.949 334.971 395.949 333.555C395.949 332.155 396.258 330.913 396.874 329.83C397.491 328.746 398.333 327.913 399.399 327.33C400.466 326.746 401.658 326.455 402.974 326.455C404.291 326.455 405.483 326.746 406.549 327.33C407.616 327.913 408.458 328.746 409.074 329.83C409.691 330.913 409.999 332.155 409.999 333.555C409.999 334.955 409.683 336.196 409.049 337.28C408.416 338.363 407.549 339.205 406.449 339.805C405.366 340.388 404.166 340.68 402.849 340.68ZM402.849 338.205C403.583 338.205 404.266 338.03 404.899 337.68C405.549 337.33 406.074 336.805 406.474 336.105C406.874 335.405 407.074 334.555 407.074 333.555C407.074 332.555 406.883 331.713 406.499 331.03C406.116 330.33 405.608 329.805 404.974 329.455C404.341 329.105 403.658 328.93 402.924 328.93C402.191 328.93 401.508 329.105 400.874 329.455C400.258 329.805 399.766 330.33 399.399 331.03C399.033 331.713 398.849 332.555 398.849 333.555C398.849 335.038 399.224 336.188 399.974 337.005C400.741 337.805 401.699 338.205 402.849 338.205ZM419.767 326.455C420.85 326.455 421.817 326.68 422.667 327.13C423.533 327.58 424.208 328.246 424.692 329.13C425.175 330.013 425.417 331.08 425.417 332.33V340.455H422.592V332.755C422.592 331.521 422.283 330.58 421.667 329.93C421.05 329.263 420.208 328.93 419.142 328.93C418.075 328.93 417.225 329.263 416.592 329.93C415.975 330.58 415.667 331.521 415.667 332.755V340.455H412.817V326.68H415.667V328.255C416.133 327.688 416.725 327.246 417.442 326.93C418.175 326.613 418.95 326.455 419.767 326.455ZM438.871 329.005V336.63C438.871 337.146 438.988 337.521 439.221 337.755C439.471 337.971 439.888 338.08 440.471 338.08H442.221V340.455H439.971C438.688 340.455 437.705 340.155 437.021 339.555C436.338 338.955 435.996 337.98 435.996 336.63V329.005H434.371V326.68H435.996V323.255H438.871V326.68H442.221V329.005H438.871ZM450.823 340.68C449.523 340.68 448.348 340.388 447.298 339.805C446.248 339.205 445.423 338.371 444.823 337.305C444.223 336.221 443.923 334.971 443.923 333.555C443.923 332.155 444.231 330.913 444.848 329.83C445.465 328.746 446.306 327.913 447.373 327.33C448.44 326.746 449.631 326.455 450.948 326.455C452.265 326.455 453.456 326.746 454.523 327.33C455.59 327.913 456.431 328.746 457.048 329.83C457.665 330.913 457.973 332.155 457.973 333.555C457.973 334.955 457.656 336.196 457.023 337.28C456.39 338.363 455.523 339.205 454.423 339.805C453.34 340.388 452.14 340.68 450.823 340.68ZM450.823 338.205C451.556 338.205 452.24 338.03 452.873 337.68C453.523 337.33 454.048 336.805 454.448 336.105C454.848 335.405 455.048 334.555 455.048 333.555C455.048 332.555 454.856 331.713 454.473 331.03C454.09 330.33 453.581 329.805 452.948 329.455C452.315 329.105 451.631 328.93 450.898 328.93C450.165 328.93 449.481 329.105 448.848 329.455C448.231 329.805 447.74 330.33 447.373 331.03C447.006 331.713 446.823 332.555 446.823 333.555C446.823 335.038 447.198 336.188 447.948 337.005C448.715 337.805 449.673 338.205 450.823 338.205ZM250.832 371.555C250.832 370.138 251.115 368.896 251.682 367.83C252.265 366.746 253.065 365.913 254.082 365.33C255.098 364.746 256.265 364.455 257.582 364.455C259.248 364.455 260.623 364.855 261.707 365.655C262.807 366.438 263.548 367.563 263.932 369.03H260.857C260.607 368.346 260.207 367.813 259.657 367.43C259.107 367.046 258.415 366.855 257.582 366.855C256.415 366.855 255.482 367.271 254.782 368.105C254.098 368.921 253.757 370.071 253.757 371.555C253.757 373.038 254.098 374.196 254.782 375.03C255.482 375.863 256.415 376.28 257.582 376.28C259.232 376.28 260.323 375.555 260.857 374.105H263.932C263.532 375.505 262.782 376.621 261.682 377.455C260.582 378.271 259.215 378.68 257.582 378.68C256.265 378.68 255.098 378.388 254.082 377.805C253.065 377.205 252.265 376.371 251.682 375.305C251.115 374.221 250.832 372.971 250.832 371.555ZM269.622 366.68C270.038 365.98 270.588 365.438 271.272 365.055C271.972 364.655 272.797 364.455 273.747 364.455V367.405H273.022C271.905 367.405 271.055 367.688 270.472 368.255C269.905 368.821 269.622 369.805 269.622 371.205V378.455H266.772V364.68H269.622V366.68ZM288.992 371.23C288.992 371.746 288.958 372.213 288.892 372.63H278.367C278.45 373.73 278.858 374.613 279.592 375.28C280.325 375.946 281.225 376.28 282.292 376.28C283.825 376.28 284.908 375.638 285.542 374.355H288.617C288.2 375.621 287.442 376.663 286.342 377.48C285.258 378.28 283.908 378.68 282.292 378.68C280.975 378.68 279.792 378.388 278.742 377.805C277.708 377.205 276.892 376.371 276.292 375.305C275.708 374.221 275.417 372.971 275.417 371.555C275.417 370.138 275.7 368.896 276.267 367.83C276.85 366.746 277.658 365.913 278.692 365.33C279.742 364.746 280.942 364.455 282.292 364.455C283.592 364.455 284.75 364.738 285.767 365.305C286.783 365.871 287.575 366.671 288.142 367.705C288.708 368.721 288.992 369.896 288.992 371.23ZM286.017 370.33C286 369.28 285.625 368.438 284.892 367.805C284.158 367.171 283.25 366.855 282.167 366.855C281.183 366.855 280.342 367.171 279.642 367.805C278.942 368.421 278.525 369.263 278.392 370.33H286.017ZM290.846 371.505C290.846 370.121 291.13 368.896 291.696 367.83C292.28 366.763 293.063 365.938 294.046 365.355C295.046 364.755 296.146 364.455 297.346 364.455C298.43 364.455 299.371 364.671 300.171 365.105C300.988 365.521 301.638 366.046 302.121 366.68V364.68H304.996V378.455H302.121V376.405C301.638 377.055 300.98 377.596 300.146 378.03C299.313 378.463 298.363 378.68 297.296 378.68C296.113 378.68 295.03 378.38 294.046 377.78C293.063 377.163 292.28 376.313 291.696 375.23C291.13 374.13 290.846 372.888 290.846 371.505ZM302.121 371.555C302.121 370.605 301.921 369.78 301.521 369.08C301.138 368.38 300.63 367.846 299.996 367.48C299.363 367.113 298.68 366.93 297.946 366.93C297.213 366.93 296.53 367.113 295.896 367.48C295.263 367.83 294.746 368.355 294.346 369.055C293.963 369.738 293.771 370.555 293.771 371.505C293.771 372.455 293.963 373.288 294.346 374.005C294.746 374.721 295.263 375.271 295.896 375.655C296.546 376.021 297.23 376.205 297.946 376.205C298.68 376.205 299.363 376.021 299.996 375.655C300.63 375.288 301.138 374.755 301.521 374.055C301.921 373.338 302.121 372.505 302.121 371.555ZM312.065 367.005V374.63C312.065 375.146 312.181 375.521 312.415 375.755C312.665 375.971 313.081 376.08 313.665 376.08H315.415V378.455H313.165C311.881 378.455 310.898 378.155 310.215 377.555C309.531 376.955 309.19 375.98 309.19 374.63V367.005H307.565V364.68H309.19V361.255H312.065V364.68H315.415V367.005H312.065ZM330.666 371.23C330.666 371.746 330.633 372.213 330.566 372.63H320.041C320.125 373.73 320.533 374.613 321.266 375.28C322 375.946 322.9 376.28 323.966 376.28C325.5 376.28 326.583 375.638 327.216 374.355H330.291C329.875 375.621 329.116 376.663 328.016 377.48C326.933 378.28 325.583 378.68 323.966 378.68C322.65 378.68 321.466 378.388 320.416 377.805C319.383 377.205 318.566 376.371 317.966 375.305C317.383 374.221 317.091 372.971 317.091 371.555C317.091 370.138 317.375 368.896 317.941 367.83C318.525 366.746 319.333 365.913 320.366 365.33C321.416 364.746 322.616 364.455 323.966 364.455C325.266 364.455 326.425 364.738 327.441 365.305C328.458 365.871 329.25 366.671 329.816 367.705C330.383 368.721 330.666 369.896 330.666 371.23ZM327.691 370.33C327.675 369.28 327.3 368.438 326.566 367.805C325.833 367.171 324.925 366.855 323.841 366.855C322.858 366.855 322.016 367.171 321.316 367.805C320.616 368.421 320.2 369.263 320.066 370.33H327.691ZM345.94 378.68C344.64 378.68 343.465 378.388 342.415 377.805C341.365 377.205 340.54 376.371 339.94 375.305C339.34 374.221 339.04 372.971 339.04 371.555C339.04 370.155 339.348 368.913 339.965 367.83C340.582 366.746 341.423 365.913 342.49 365.33C343.557 364.746 344.748 364.455 346.065 364.455C347.382 364.455 348.573 364.746 349.64 365.33C350.707 365.913 351.548 366.746 352.165 367.83C352.782 368.913 353.09 370.155 353.09 371.555C353.09 372.955 352.773 374.196 352.14 375.28C351.507 376.363 350.64 377.205 349.54 377.805C348.457 378.388 347.257 378.68 345.94 378.68ZM345.94 376.205C346.673 376.205 347.357 376.03 347.99 375.68C348.64 375.33 349.165 374.805 349.565 374.105C349.965 373.405 350.165 372.555 350.165 371.555C350.165 370.555 349.973 369.713 349.59 369.03C349.207 368.33 348.698 367.805 348.065 367.455C347.432 367.105 346.748 366.93 346.015 366.93C345.282 366.93 344.598 367.105 343.965 367.455C343.348 367.805 342.857 368.33 342.49 369.03C342.123 369.713 341.94 370.555 341.94 371.555C341.94 373.038 342.315 374.188 343.065 375.005C343.832 375.805 344.79 376.205 345.94 376.205ZM362.858 364.455C363.941 364.455 364.908 364.68 365.758 365.13C366.624 365.58 367.299 366.246 367.783 367.13C368.266 368.013 368.508 369.08 368.508 370.33V378.455H365.683V370.755C365.683 369.521 365.374 368.58 364.758 367.93C364.141 367.263 363.299 366.93 362.233 366.93C361.166 366.93 360.316 367.263 359.683 367.93C359.066 368.58 358.758 369.521 358.758 370.755V378.455H355.908V364.68H358.758V366.255C359.224 365.688 359.816 365.246 360.533 364.93C361.266 364.613 362.041 364.455 362.858 364.455ZM384.768 371.23C384.768 371.746 384.735 372.213 384.668 372.63H374.143C374.226 373.73 374.635 374.613 375.368 375.28C376.101 375.946 377.001 376.28 378.068 376.28C379.601 376.28 380.685 375.638 381.318 374.355H384.393C383.976 375.621 383.218 376.663 382.118 377.48C381.035 378.28 379.685 378.68 378.068 378.68C376.751 378.68 375.568 378.388 374.518 377.805C373.485 377.205 372.668 376.371 372.068 375.305C371.485 374.221 371.193 372.971 371.193 371.555C371.193 370.138 371.476 368.896 372.043 367.83C372.626 366.746 373.435 365.913 374.468 365.33C375.518 364.746 376.718 364.455 378.068 364.455C379.368 364.455 380.526 364.738 381.543 365.305C382.56 365.871 383.351 366.671 383.918 367.705C384.485 368.721 384.768 369.896 384.768 371.23ZM381.793 370.33C381.776 369.28 381.401 368.438 380.668 367.805C379.935 367.171 379.026 366.855 377.943 366.855C376.96 366.855 376.118 367.171 375.418 367.805C374.718 368.421 374.301 369.263 374.168 370.33H381.793ZM391.148 361.08L390.823 373.205H388.448L388.123 361.08H391.148ZM389.723 378.63C389.206 378.63 388.773 378.455 388.423 378.105C388.073 377.755 387.898 377.321 387.898 376.805C387.898 376.288 388.073 375.855 388.423 375.505C388.773 375.155 389.206 374.98 389.723 374.98C390.223 374.98 390.648 375.155 390.998 375.505C391.348 375.855 391.523 376.288 391.523 376.805C391.523 377.321 391.348 377.755 390.998 378.105C390.648 378.455 390.223 378.63 389.723 378.63Z" fill="#4F4F4F"/>
</g>
<defs>
<filter id="filter0_d" x="21" y="130.364" width="222.182" height="58.5455" filterUnits="userSpaceOnUse" color-interpolation-filters="sRGB">
<feFlood flood-opacity="0" result="BackgroundImageFix"/>
<feColorMatrix in="SourceAlpha" type="matrix" values="0 0 0 0 0 0 0 0 0 0 0 0 0 0 0 0 0 0 127 0" result="hardAlpha"/>
<feOffset dy="1"/>
<feGaussianBlur stdDeviation="1"/>
<feComposite in2="hardAlpha" operator="out"/>
<feColorMatrix type="matrix" values="0 0 0 0 0 0 0 0 0 0 0 0 0 0 0 0 0 0 0.25 0"/>
<feBlend mode="normal" in2="BackgroundImageFix" result="effect1_dropShadow"/>
<feBlend mode="normal" in="SourceGraphic" in2="effect1_dropShadow" result="shape"/>
</filter>
<clipPath id="clip0">
<rect width="480" height="480" fill="white"/>
</clipPath>
</defs>
</svg>
