<svg width="100" height="100" viewBox="0 0 100 100" fill="none" xmlns="http://www.w3.org/2000/svg">
<rect width="100" height="100" rx="5" fill="#2F80ED"/>
<path d="M8 18C8 15.2386 10.2386 13 13 13H88C90.7614 13 93 15.2386 93 18V18C93 20.7614 90.7614 23 88 23H13C10.2386 23 8 20.7614 8 18V18Z" fill="#F2F2F2"/>
<path d="M8 50C8 47.2386 10.2386 45 13 45H88C90.7614 45 93 47.2386 93 50V50C93 52.7614 90.7614 55 88 55H13C10.2386 55 8 52.7614 8 50V50Z" fill="#F2F2F2"/>
<path d="M8 82C8 79.2386 10.2386 77 13 77H88C90.7614 77 93 79.2386 93 82V82C93 84.7614 90.7614 87 88 87H13C10.2386 87 8 84.7614 8 82V82Z" fill="#F2F2F2"/>
</svg>
